<?xml version="1.0" encoding="utf-8" standalone="no"?>
<!DOCTYPE svg PUBLIC "-//W3C//DTD SVG 1.1//EN"
  "http://www.w3.org/Graphics/SVG/1.1/DTD/svg11.dtd">
<svg height="720pt" version="1.1" viewBox="0 0 864 720" width="864pt" xmlns="http://www.w3.org/2000/svg" xmlns:xlink="http://www.w3.org/1999/xlink">
 <metadata>
  <rdf:RDF xmlns:cc="http://creativecommons.org/ns#" xmlns:dc="http://purl.org/dc/elements/1.1/" xmlns:rdf="http://www.w3.org/1999/02/22-rdf-syntax-ns#">
   <cc:Work>
    <dc:type rdf:resource="http://purl.org/dc/dcmitype/StillImage"/>
    <dc:date>2023-05-06T19:34:37.072213</dc:date>
    <dc:format>image/svg+xml</dc:format>
    <dc:creator>
     <cc:Agent>
      <dc:title>Matplotlib v3.4.3, https://matplotlib.org/</dc:title>
     </cc:Agent>
    </dc:creator>
   </cc:Work>
  </rdf:RDF>
 </metadata>
 <defs>
  <style type="text/css">*{stroke-linecap:butt;stroke-linejoin:round;}</style>
 </defs>
 <g id="figure_1">
  <g id="patch_1">
   <path d="M 0 720 
L 864 720 
L 864 0 
L 0 0 
z
" style="fill:#ffffff;"/>
  </g>
  <g id="axes_1">
   <g id="patch_2">
    <path d="M 108 640.8 
L 777.6 640.8 
L 777.6 86.4 
L 108 86.4 
z
" style="fill:#ffffff;"/>
   </g>
   <g id="matplotlib.axis_1">
    <g id="xtick_1">
     <g id="line2d_1">
      <defs>
       <path d="M 0 0 
L 0 3.5 
" id="m5e66dd1433" style="stroke:#000000;stroke-width:0.8;"/>
      </defs>
      <g>
       <use style="stroke:#000000;stroke-width:0.8;" x="138.436364" xlink:href="#m5e66dd1433" y="640.8"/>
      </g>
     </g>
     <g id="text_1">
      <!-- 0 -->
      <g transform="translate(135.255114 655.398438)scale(0.1 -0.1)">
       <defs>
        <path d="M 2034 4250 
Q 1547 4250 1301 3770 
Q 1056 3291 1056 2328 
Q 1056 1369 1301 889 
Q 1547 409 2034 409 
Q 2525 409 2770 889 
Q 3016 1369 3016 2328 
Q 3016 3291 2770 3770 
Q 2525 4250 2034 4250 
z
M 2034 4750 
Q 2819 4750 3233 4129 
Q 3647 3509 3647 2328 
Q 3647 1150 3233 529 
Q 2819 -91 2034 -91 
Q 1250 -91 836 529 
Q 422 1150 422 2328 
Q 422 3509 836 4129 
Q 1250 4750 2034 4750 
z
" id="DejaVuSans-30" transform="scale(0.015625)"/>
       </defs>
       <use xlink:href="#DejaVuSans-30"/>
      </g>
     </g>
    </g>
    <g id="xtick_2">
     <g id="line2d_2">
      <g>
       <use style="stroke:#000000;stroke-width:0.8;" x="251.687949" xlink:href="#m5e66dd1433" y="640.8"/>
      </g>
     </g>
     <g id="text_2">
      <!-- 200 -->
      <g transform="translate(242.144199 655.398438)scale(0.1 -0.1)">
       <defs>
        <path d="M 1228 531 
L 3431 531 
L 3431 0 
L 469 0 
L 469 531 
Q 828 903 1448 1529 
Q 2069 2156 2228 2338 
Q 2531 2678 2651 2914 
Q 2772 3150 2772 3378 
Q 2772 3750 2511 3984 
Q 2250 4219 1831 4219 
Q 1534 4219 1204 4116 
Q 875 4013 500 3803 
L 500 4441 
Q 881 4594 1212 4672 
Q 1544 4750 1819 4750 
Q 2544 4750 2975 4387 
Q 3406 4025 3406 3419 
Q 3406 3131 3298 2873 
Q 3191 2616 2906 2266 
Q 2828 2175 2409 1742 
Q 1991 1309 1228 531 
z
" id="DejaVuSans-32" transform="scale(0.015625)"/>
       </defs>
       <use xlink:href="#DejaVuSans-32"/>
       <use x="63.623047" xlink:href="#DejaVuSans-30"/>
       <use x="127.246094" xlink:href="#DejaVuSans-30"/>
      </g>
     </g>
    </g>
    <g id="xtick_3">
     <g id="line2d_3">
      <g>
       <use style="stroke:#000000;stroke-width:0.8;" x="364.939535" xlink:href="#m5e66dd1433" y="640.8"/>
      </g>
     </g>
     <g id="text_3">
      <!-- 400 -->
      <g transform="translate(355.395785 655.398438)scale(0.1 -0.1)">
       <defs>
        <path d="M 2419 4116 
L 825 1625 
L 2419 1625 
L 2419 4116 
z
M 2253 4666 
L 3047 4666 
L 3047 1625 
L 3713 1625 
L 3713 1100 
L 3047 1100 
L 3047 0 
L 2419 0 
L 2419 1100 
L 313 1100 
L 313 1709 
L 2253 4666 
z
" id="DejaVuSans-34" transform="scale(0.015625)"/>
       </defs>
       <use xlink:href="#DejaVuSans-34"/>
       <use x="63.623047" xlink:href="#DejaVuSans-30"/>
       <use x="127.246094" xlink:href="#DejaVuSans-30"/>
      </g>
     </g>
    </g>
    <g id="xtick_4">
     <g id="line2d_4">
      <g>
       <use style="stroke:#000000;stroke-width:0.8;" x="478.191121" xlink:href="#m5e66dd1433" y="640.8"/>
      </g>
     </g>
     <g id="text_4">
      <!-- 600 -->
      <g transform="translate(468.647371 655.398438)scale(0.1 -0.1)">
       <defs>
        <path d="M 2113 2584 
Q 1688 2584 1439 2293 
Q 1191 2003 1191 1497 
Q 1191 994 1439 701 
Q 1688 409 2113 409 
Q 2538 409 2786 701 
Q 3034 994 3034 1497 
Q 3034 2003 2786 2293 
Q 2538 2584 2113 2584 
z
M 3366 4563 
L 3366 3988 
Q 3128 4100 2886 4159 
Q 2644 4219 2406 4219 
Q 1781 4219 1451 3797 
Q 1122 3375 1075 2522 
Q 1259 2794 1537 2939 
Q 1816 3084 2150 3084 
Q 2853 3084 3261 2657 
Q 3669 2231 3669 1497 
Q 3669 778 3244 343 
Q 2819 -91 2113 -91 
Q 1303 -91 875 529 
Q 447 1150 447 2328 
Q 447 3434 972 4092 
Q 1497 4750 2381 4750 
Q 2619 4750 2861 4703 
Q 3103 4656 3366 4563 
z
" id="DejaVuSans-36" transform="scale(0.015625)"/>
       </defs>
       <use xlink:href="#DejaVuSans-36"/>
       <use x="63.623047" xlink:href="#DejaVuSans-30"/>
       <use x="127.246094" xlink:href="#DejaVuSans-30"/>
      </g>
     </g>
    </g>
    <g id="xtick_5">
     <g id="line2d_5">
      <g>
       <use style="stroke:#000000;stroke-width:0.8;" x="591.442706" xlink:href="#m5e66dd1433" y="640.8"/>
      </g>
     </g>
     <g id="text_5">
      <!-- 800 -->
      <g transform="translate(581.898956 655.398438)scale(0.1 -0.1)">
       <defs>
        <path d="M 2034 2216 
Q 1584 2216 1326 1975 
Q 1069 1734 1069 1313 
Q 1069 891 1326 650 
Q 1584 409 2034 409 
Q 2484 409 2743 651 
Q 3003 894 3003 1313 
Q 3003 1734 2745 1975 
Q 2488 2216 2034 2216 
z
M 1403 2484 
Q 997 2584 770 2862 
Q 544 3141 544 3541 
Q 544 4100 942 4425 
Q 1341 4750 2034 4750 
Q 2731 4750 3128 4425 
Q 3525 4100 3525 3541 
Q 3525 3141 3298 2862 
Q 3072 2584 2669 2484 
Q 3125 2378 3379 2068 
Q 3634 1759 3634 1313 
Q 3634 634 3220 271 
Q 2806 -91 2034 -91 
Q 1263 -91 848 271 
Q 434 634 434 1313 
Q 434 1759 690 2068 
Q 947 2378 1403 2484 
z
M 1172 3481 
Q 1172 3119 1398 2916 
Q 1625 2713 2034 2713 
Q 2441 2713 2670 2916 
Q 2900 3119 2900 3481 
Q 2900 3844 2670 4047 
Q 2441 4250 2034 4250 
Q 1625 4250 1398 4047 
Q 1172 3844 1172 3481 
z
" id="DejaVuSans-38" transform="scale(0.015625)"/>
       </defs>
       <use xlink:href="#DejaVuSans-38"/>
       <use x="63.623047" xlink:href="#DejaVuSans-30"/>
       <use x="127.246094" xlink:href="#DejaVuSans-30"/>
      </g>
     </g>
    </g>
    <g id="xtick_6">
     <g id="line2d_6">
      <g>
       <use style="stroke:#000000;stroke-width:0.8;" x="704.694292" xlink:href="#m5e66dd1433" y="640.8"/>
      </g>
     </g>
     <g id="text_6">
      <!-- 1000 -->
      <g transform="translate(691.969292 655.398438)scale(0.1 -0.1)">
       <defs>
        <path d="M 794 531 
L 1825 531 
L 1825 4091 
L 703 3866 
L 703 4441 
L 1819 4666 
L 2450 4666 
L 2450 531 
L 3481 531 
L 3481 0 
L 794 0 
L 794 531 
z
" id="DejaVuSans-31" transform="scale(0.015625)"/>
       </defs>
       <use xlink:href="#DejaVuSans-31"/>
       <use x="63.623047" xlink:href="#DejaVuSans-30"/>
       <use x="127.246094" xlink:href="#DejaVuSans-30"/>
       <use x="190.869141" xlink:href="#DejaVuSans-30"/>
      </g>
     </g>
    </g>
    <g id="text_7">
     <!-- xlabel -->
     <g transform="translate(427.747656 669.076563)scale(0.1 -0.1)">
      <defs>
       <path d="M 3513 3500 
L 2247 1797 
L 3578 0 
L 2900 0 
L 1881 1375 
L 863 0 
L 184 0 
L 1544 1831 
L 300 3500 
L 978 3500 
L 1906 2253 
L 2834 3500 
L 3513 3500 
z
" id="DejaVuSans-78" transform="scale(0.015625)"/>
       <path d="M 603 4863 
L 1178 4863 
L 1178 0 
L 603 0 
L 603 4863 
z
" id="DejaVuSans-6c" transform="scale(0.015625)"/>
       <path d="M 2194 1759 
Q 1497 1759 1228 1600 
Q 959 1441 959 1056 
Q 959 750 1161 570 
Q 1363 391 1709 391 
Q 2188 391 2477 730 
Q 2766 1069 2766 1631 
L 2766 1759 
L 2194 1759 
z
M 3341 1997 
L 3341 0 
L 2766 0 
L 2766 531 
Q 2569 213 2275 61 
Q 1981 -91 1556 -91 
Q 1019 -91 701 211 
Q 384 513 384 1019 
Q 384 1609 779 1909 
Q 1175 2209 1959 2209 
L 2766 2209 
L 2766 2266 
Q 2766 2663 2505 2880 
Q 2244 3097 1772 3097 
Q 1472 3097 1187 3025 
Q 903 2953 641 2809 
L 641 3341 
Q 956 3463 1253 3523 
Q 1550 3584 1831 3584 
Q 2591 3584 2966 3190 
Q 3341 2797 3341 1997 
z
" id="DejaVuSans-61" transform="scale(0.015625)"/>
       <path d="M 3116 1747 
Q 3116 2381 2855 2742 
Q 2594 3103 2138 3103 
Q 1681 3103 1420 2742 
Q 1159 2381 1159 1747 
Q 1159 1113 1420 752 
Q 1681 391 2138 391 
Q 2594 391 2855 752 
Q 3116 1113 3116 1747 
z
M 1159 2969 
Q 1341 3281 1617 3432 
Q 1894 3584 2278 3584 
Q 2916 3584 3314 3078 
Q 3713 2572 3713 1747 
Q 3713 922 3314 415 
Q 2916 -91 2278 -91 
Q 1894 -91 1617 61 
Q 1341 213 1159 525 
L 1159 0 
L 581 0 
L 581 4863 
L 1159 4863 
L 1159 2969 
z
" id="DejaVuSans-62" transform="scale(0.015625)"/>
       <path d="M 3597 1894 
L 3597 1613 
L 953 1613 
Q 991 1019 1311 708 
Q 1631 397 2203 397 
Q 2534 397 2845 478 
Q 3156 559 3463 722 
L 3463 178 
Q 3153 47 2828 -22 
Q 2503 -91 2169 -91 
Q 1331 -91 842 396 
Q 353 884 353 1716 
Q 353 2575 817 3079 
Q 1281 3584 2069 3584 
Q 2775 3584 3186 3129 
Q 3597 2675 3597 1894 
z
M 3022 2063 
Q 3016 2534 2758 2815 
Q 2500 3097 2075 3097 
Q 1594 3097 1305 2825 
Q 1016 2553 972 2059 
L 3022 2063 
z
" id="DejaVuSans-65" transform="scale(0.015625)"/>
      </defs>
      <use xlink:href="#DejaVuSans-78"/>
      <use x="59.179688" xlink:href="#DejaVuSans-6c"/>
      <use x="86.962891" xlink:href="#DejaVuSans-61"/>
      <use x="148.242188" xlink:href="#DejaVuSans-62"/>
      <use x="211.71875" xlink:href="#DejaVuSans-65"/>
      <use x="273.242188" xlink:href="#DejaVuSans-6c"/>
     </g>
    </g>
   </g>
   <g id="matplotlib.axis_2">
    <g id="ytick_1">
     <g id="line2d_7">
      <defs>
       <path d="M 0 0 
L -3.5 0 
" id="m78db17d965" style="stroke:#000000;stroke-width:0.8;"/>
      </defs>
      <g>
       <use style="stroke:#000000;stroke-width:0.8;" x="108" xlink:href="#m78db17d965" y="615.6"/>
      </g>
     </g>
     <g id="text_8">
      <!-- 0 -->
      <g transform="translate(94.6375 619.399219)scale(0.1 -0.1)">
       <use xlink:href="#DejaVuSans-30"/>
      </g>
     </g>
    </g>
    <g id="ytick_2">
     <g id="line2d_8">
      <g>
       <use style="stroke:#000000;stroke-width:0.8;" x="108" xlink:href="#m78db17d965" y="551.959378"/>
      </g>
     </g>
     <g id="text_9">
      <!-- 100000 -->
      <g transform="translate(62.825 555.758596)scale(0.1 -0.1)">
       <use xlink:href="#DejaVuSans-31"/>
       <use x="63.623047" xlink:href="#DejaVuSans-30"/>
       <use x="127.246094" xlink:href="#DejaVuSans-30"/>
       <use x="190.869141" xlink:href="#DejaVuSans-30"/>
       <use x="254.492188" xlink:href="#DejaVuSans-30"/>
       <use x="318.115234" xlink:href="#DejaVuSans-30"/>
      </g>
     </g>
    </g>
    <g id="ytick_3">
     <g id="line2d_9">
      <g>
       <use style="stroke:#000000;stroke-width:0.8;" x="108" xlink:href="#m78db17d965" y="488.318755"/>
      </g>
     </g>
     <g id="text_10">
      <!-- 200000 -->
      <g transform="translate(62.825 492.117974)scale(0.1 -0.1)">
       <use xlink:href="#DejaVuSans-32"/>
       <use x="63.623047" xlink:href="#DejaVuSans-30"/>
       <use x="127.246094" xlink:href="#DejaVuSans-30"/>
       <use x="190.869141" xlink:href="#DejaVuSans-30"/>
       <use x="254.492188" xlink:href="#DejaVuSans-30"/>
       <use x="318.115234" xlink:href="#DejaVuSans-30"/>
      </g>
     </g>
    </g>
    <g id="ytick_4">
     <g id="line2d_10">
      <g>
       <use style="stroke:#000000;stroke-width:0.8;" x="108" xlink:href="#m78db17d965" y="424.678133"/>
      </g>
     </g>
     <g id="text_11">
      <!-- 300000 -->
      <g transform="translate(62.825 428.477352)scale(0.1 -0.1)">
       <defs>
        <path d="M 2597 2516 
Q 3050 2419 3304 2112 
Q 3559 1806 3559 1356 
Q 3559 666 3084 287 
Q 2609 -91 1734 -91 
Q 1441 -91 1130 -33 
Q 819 25 488 141 
L 488 750 
Q 750 597 1062 519 
Q 1375 441 1716 441 
Q 2309 441 2620 675 
Q 2931 909 2931 1356 
Q 2931 1769 2642 2001 
Q 2353 2234 1838 2234 
L 1294 2234 
L 1294 2753 
L 1863 2753 
Q 2328 2753 2575 2939 
Q 2822 3125 2822 3475 
Q 2822 3834 2567 4026 
Q 2313 4219 1838 4219 
Q 1578 4219 1281 4162 
Q 984 4106 628 3988 
L 628 4550 
Q 988 4650 1302 4700 
Q 1616 4750 1894 4750 
Q 2613 4750 3031 4423 
Q 3450 4097 3450 3541 
Q 3450 3153 3228 2886 
Q 3006 2619 2597 2516 
z
" id="DejaVuSans-33" transform="scale(0.015625)"/>
       </defs>
       <use xlink:href="#DejaVuSans-33"/>
       <use x="63.623047" xlink:href="#DejaVuSans-30"/>
       <use x="127.246094" xlink:href="#DejaVuSans-30"/>
       <use x="190.869141" xlink:href="#DejaVuSans-30"/>
       <use x="254.492188" xlink:href="#DejaVuSans-30"/>
       <use x="318.115234" xlink:href="#DejaVuSans-30"/>
      </g>
     </g>
    </g>
    <g id="ytick_5">
     <g id="line2d_11">
      <g>
       <use style="stroke:#000000;stroke-width:0.8;" x="108" xlink:href="#m78db17d965" y="361.03751"/>
      </g>
     </g>
     <g id="text_12">
      <!-- 400000 -->
      <g transform="translate(62.825 364.836729)scale(0.1 -0.1)">
       <use xlink:href="#DejaVuSans-34"/>
       <use x="63.623047" xlink:href="#DejaVuSans-30"/>
       <use x="127.246094" xlink:href="#DejaVuSans-30"/>
       <use x="190.869141" xlink:href="#DejaVuSans-30"/>
       <use x="254.492188" xlink:href="#DejaVuSans-30"/>
       <use x="318.115234" xlink:href="#DejaVuSans-30"/>
      </g>
     </g>
    </g>
    <g id="ytick_6">
     <g id="line2d_12">
      <g>
       <use style="stroke:#000000;stroke-width:0.8;" x="108" xlink:href="#m78db17d965" y="297.396888"/>
      </g>
     </g>
     <g id="text_13">
      <!-- 500000 -->
      <g transform="translate(62.825 301.196107)scale(0.1 -0.1)">
       <defs>
        <path d="M 691 4666 
L 3169 4666 
L 3169 4134 
L 1269 4134 
L 1269 2991 
Q 1406 3038 1543 3061 
Q 1681 3084 1819 3084 
Q 2600 3084 3056 2656 
Q 3513 2228 3513 1497 
Q 3513 744 3044 326 
Q 2575 -91 1722 -91 
Q 1428 -91 1123 -41 
Q 819 9 494 109 
L 494 744 
Q 775 591 1075 516 
Q 1375 441 1709 441 
Q 2250 441 2565 725 
Q 2881 1009 2881 1497 
Q 2881 1984 2565 2268 
Q 2250 2553 1709 2553 
Q 1456 2553 1204 2497 
Q 953 2441 691 2322 
L 691 4666 
z
" id="DejaVuSans-35" transform="scale(0.015625)"/>
       </defs>
       <use xlink:href="#DejaVuSans-35"/>
       <use x="63.623047" xlink:href="#DejaVuSans-30"/>
       <use x="127.246094" xlink:href="#DejaVuSans-30"/>
       <use x="190.869141" xlink:href="#DejaVuSans-30"/>
       <use x="254.492188" xlink:href="#DejaVuSans-30"/>
       <use x="318.115234" xlink:href="#DejaVuSans-30"/>
      </g>
     </g>
    </g>
    <g id="ytick_7">
     <g id="line2d_13">
      <g>
       <use style="stroke:#000000;stroke-width:0.8;" x="108" xlink:href="#m78db17d965" y="233.756266"/>
      </g>
     </g>
     <g id="text_14">
      <!-- 600000 -->
      <g transform="translate(62.825 237.555484)scale(0.1 -0.1)">
       <use xlink:href="#DejaVuSans-36"/>
       <use x="63.623047" xlink:href="#DejaVuSans-30"/>
       <use x="127.246094" xlink:href="#DejaVuSans-30"/>
       <use x="190.869141" xlink:href="#DejaVuSans-30"/>
       <use x="254.492188" xlink:href="#DejaVuSans-30"/>
       <use x="318.115234" xlink:href="#DejaVuSans-30"/>
      </g>
     </g>
    </g>
    <g id="ytick_8">
     <g id="line2d_14">
      <g>
       <use style="stroke:#000000;stroke-width:0.8;" x="108" xlink:href="#m78db17d965" y="170.115643"/>
      </g>
     </g>
     <g id="text_15">
      <!-- 700000 -->
      <g transform="translate(62.825 173.914862)scale(0.1 -0.1)">
       <defs>
        <path d="M 525 4666 
L 3525 4666 
L 3525 4397 
L 1831 0 
L 1172 0 
L 2766 4134 
L 525 4134 
L 525 4666 
z
" id="DejaVuSans-37" transform="scale(0.015625)"/>
       </defs>
       <use xlink:href="#DejaVuSans-37"/>
       <use x="63.623047" xlink:href="#DejaVuSans-30"/>
       <use x="127.246094" xlink:href="#DejaVuSans-30"/>
       <use x="190.869141" xlink:href="#DejaVuSans-30"/>
       <use x="254.492188" xlink:href="#DejaVuSans-30"/>
       <use x="318.115234" xlink:href="#DejaVuSans-30"/>
      </g>
     </g>
    </g>
    <g id="ytick_9">
     <g id="line2d_15">
      <g>
       <use style="stroke:#000000;stroke-width:0.8;" x="108" xlink:href="#m78db17d965" y="106.475021"/>
      </g>
     </g>
     <g id="text_16">
      <!-- 800000 -->
      <g transform="translate(62.825 110.274239)scale(0.1 -0.1)">
       <use xlink:href="#DejaVuSans-38"/>
       <use x="63.623047" xlink:href="#DejaVuSans-30"/>
       <use x="127.246094" xlink:href="#DejaVuSans-30"/>
       <use x="190.869141" xlink:href="#DejaVuSans-30"/>
       <use x="254.492188" xlink:href="#DejaVuSans-30"/>
       <use x="318.115234" xlink:href="#DejaVuSans-30"/>
      </g>
     </g>
    </g>
    <g id="text_17">
     <!-- ylabel -->
     <g transform="translate(43.772656 361.520312)scale(0.1 -0.1)">
      <defs>
       <path d="M 2059 -325 
Q 1816 -950 1584 -1140 
Q 1353 -1331 966 -1331 
L 506 -1331 
L 506 -850 
L 844 -850 
Q 1081 -850 1212 -737 
Q 1344 -625 1503 -206 
L 1606 56 
L 191 3500 
L 800 3500 
L 1894 763 
L 2988 3500 
L 3597 3500 
L 2059 -325 
z
" id="DejaVuSans-79" transform="scale(0.015625)"/>
      </defs>
      <use xlink:href="#DejaVuSans-79"/>
      <use x="59.179688" xlink:href="#DejaVuSans-6c"/>
      <use x="86.962891" xlink:href="#DejaVuSans-61"/>
      <use x="148.242188" xlink:href="#DejaVuSans-62"/>
      <use x="211.71875" xlink:href="#DejaVuSans-65"/>
      <use x="273.242188" xlink:href="#DejaVuSans-6c"/>
     </g>
    </g>
   </g>
   <g id="line2d_16">
    <path clip-path="url(#p4bea9b7307)" d="M 138.436364 615.575817 
L 747.163636 615.571616 
L 747.163636 615.571616 
" style="fill:none;stroke:#87ceeb;stroke-dasharray:200,2;stroke-dashoffset:0;stroke-width:2;"/>
   </g>
   <g id="line2d_17">
    <path clip-path="url(#p4bea9b7307)" d="M 138.436364 485.187 
L 139.002622 488.27357 
L 139.568879 476.227037 
L 140.701395 488.318755 
L 141.267653 495.795255 
L 141.833911 495.872261 
L 142.400169 472.4086 
L 142.966427 422.517534 
L 143.532685 468.563433 
L 144.098943 466.044537 
L 144.665201 405.585946 
L 145.231459 444.088523 
L 145.797717 456.562085 
L 146.363975 456.562085 
L 146.930233 469.226568 
L 147.49649 392.964101 
L 148.062748 393.13784 
L 148.629006 374.402041 
L 149.195264 411.950008 
L 149.761522 411.950008 
L 150.32778 453.202496 
L 150.894038 453.548065 
L 151.460296 469.862975 
L 152.026554 445.831639 
L 152.592812 466.044537 
L 153.15907 511.42412 
L 153.725328 522.134836 
L 154.291586 522.227115 
L 155.424101 530.870148 
L 155.990359 473.612044 
L 156.556617 475.245699 
L 157.122875 475.288338 
L 157.689133 475.639634 
L 158.255391 475.73955 
L 158.821649 487.910182 
L 159.387907 495.648882 
L 159.954165 463.498912 
L 160.520423 476.227037 
L 161.086681 478.454459 
L 161.652939 477.24465 
L 162.219197 477.469938 
L 162.785455 484.040833 
L 163.91797 484.285849 
L 164.484228 492.903426 
L 165.050486 493.555106 
L 165.616744 488.325119 
L 166.183002 422.904469 
L 166.74926 387.32236 
L 167.315518 393.494228 
L 167.881776 443.83396 
L 168.448034 484.049742 
L 169.58055 395.976212 
L 170.146808 396.227593 
L 170.713066 396.227593 
L 171.279323 415.132039 
L 171.845581 445.286876 
L 172.411839 408.586601 
L 172.978097 410.69247 
L 173.544355 410.903756 
L 174.110613 418.424805 
L 174.676871 418.628455 
L 175.243129 422.290973 
L 175.809387 422.490805 
L 176.375645 445.48798 
L 176.941903 445.663628 
L 177.508161 445.663628 
L 178.074419 393.494228 
L 178.640677 395.202978 
L 179.206934 395.672646 
L 179.773192 460.992108 
L 180.33945 461.265127 
L 180.905708 286.724992 
L 181.471966 452.00478 
L 182.038224 298.653154 
L 182.604482 298.900716 
L 183.17074 329.217199 
L 183.736998 329.853605 
L 184.303256 287.638235 
L 184.869514 287.638235 
L 185.435772 321.844433 
L 186.00203 322.073539 
L 186.568288 345.808946 
L 187.134545 346.01896 
L 187.700803 349.372184 
L 188.267061 471.199428 
L 188.833319 486.730285 
L 189.399577 488.005007 
L 189.965835 415.132039 
L 190.532093 411.950008 
L 191.098351 475.590631 
L 191.664609 375.957418 
L 192.230867 376.144521 
L 192.797125 418.314071 
L 193.363383 364.297819 
L 193.929641 364.557473 
L 194.495899 399.39435 
L 195.062156 418.628455 
L 195.628414 426.157141 
L 196.194672 426.352518 
L 196.76093 393.494228 
L 197.327188 418.314071 
L 197.893446 428.49657 
L 198.459704 364.557473 
L 199.025962 395.454995 
L 199.59222 342.008964 
L 200.158478 338.763292 
L 200.724736 168.028867 
L 201.857252 299.213191 
L 202.42351 392.857822 
L 202.989767 464.818819 
L 203.556025 465.123658 
L 204.122283 469.862975 
L 204.688541 486.730285 
L 205.254799 488.27357 
L 205.821057 492.562312 
L 206.387315 478.106344 
L 206.953573 496.761957 
L 207.519831 441.801279 
L 208.086089 476.452961 
L 208.652347 491.779532 
L 209.218605 491.881994 
L 209.784863 495.778709 
L 210.351121 495.990632 
L 210.917378 493.555106 
L 211.483636 373.765635 
L 212.049894 400.476877 
L 212.616152 400.723802 
L 213.18241 418.27525 
L 213.748668 418.480173 
L 214.314926 418.50181 
L 214.881184 418.900201 
L 215.447442 426.013313 
L 216.0137 426.230964 
L 216.579958 387.553376 
L 217.146216 387.730933 
L 217.712474 399.921931 
L 218.278732 400.089942 
L 218.844989 400.476877 
L 219.411247 400.723802 
L 219.977505 406.879123 
L 220.543763 407.042043 
L 221.110021 422.143963 
L 221.676279 422.366069 
L 222.242537 363.583135 
L 222.808795 367.465213 
L 223.375053 376.947666 
L 223.941311 422.143963 
L 224.507569 426.013313 
L 225.073827 443.770319 
L 225.640085 443.770319 
L 226.206342 366.875265 
L 226.7726 399.85829 
L 227.338858 418.403167 
L 227.905116 418.628455 
L 228.471374 400.089942 
L 229.037632 406.667837 
L 229.60389 406.667837 
L 230.170148 406.879123 
L 230.736406 434.077216 
L 231.302664 449.228139 
L 231.868922 416.72751 
L 232.43518 360.69576 
L 233.001438 384.461078 
L 233.567696 384.641181 
L 234.133953 408.767977 
L 234.700211 422.339976 
L 235.266469 422.490805 
L 235.832727 341.100813 
L 236.398985 341.38465 
L 236.965243 368.419823 
L 238.097759 368.419823 
L 238.664017 375.896323 
L 239.230275 376.144521 
L 239.796533 395.227798 
L 240.362791 395.454995 
L 240.929049 402.960134 
L 241.495307 403.179694 
L 242.061564 416.105105 
L 242.627822 416.3113 
L 243.19408 387.130166 
L 243.760338 425.314539 
L 244.326596 329.853605 
L 244.892854 370.583604 
L 245.459112 329.285295 
L 246.02537 329.470489 
L 246.591628 369.523987 
L 247.157886 369.683725 
L 247.724144 542.413284 
L 248.290402 295.038366 
L 248.85666 349.108712 
L 249.422918 375.957418 
L 249.989175 376.144521 
L 250.555433 395.283802 
L 251.121691 395.454995 
L 252.254207 403.179694 
L 252.820465 413.221548 
L 253.386723 418.628455 
L 253.952981 310.761419 
L 254.519239 319.671106 
L 255.085497 164.170336 
L 255.651755 383.311728 
L 256.218013 263.510166 
L 256.784271 190.759388 
L 257.916786 267.732085 
L 258.483044 268.346217 
L 259.049302 283.779704 
L 259.61556 352.766139 
L 260.181818 352.971061 
L 260.748076 353.539372 
L 261.314334 353.743659 
L 261.880592 213.2118 
L 262.44685 485.05781 
L 263.013108 491.868629 
L 264.145624 492.132101 
L 264.711882 418.950477 
L 265.27814 437.406257 
L 265.844397 437.406257 
L 266.410655 383.839945 
L 266.976913 384.074143 
L 267.543171 406.222352 
L 268.109429 407.042043 
L 268.675687 424.678133 
L 269.241945 338.294898 
L 269.808203 394.286554 
L 270.374461 281.486732 
L 270.940719 399.531177 
L 271.506977 383.948134 
L 272.073235 415.17977 
L 272.639493 414.843111 
L 273.205751 268.003194 
L 273.772008 283.451955 
L 274.338266 295.355297 
L 274.904524 345.127355 
L 275.470782 497.864849 
L 276.03704 405.617766 
L 276.603298 426.136139 
L 277.169556 426.352518 
L 278.302072 440.588288 
L 278.86833 491.500786 
L 279.434588 437.800829 
L 280.567104 438.114577 
L 281.133362 445.531256 
L 281.699619 445.663628 
L 282.265877 476.302133 
L 282.832135 477.190556 
L 283.398393 477.333747 
L 283.964651 484.814702 
L 284.530909 484.955985 
L 285.097167 337.023358 
L 285.663425 406.879123 
L 286.229683 407.042043 
L 286.795941 434.077216 
L 287.362199 367.401573 
L 287.928457 395.283802 
L 288.494715 395.454995 
L 289.060973 430.070403 
L 289.62723 430.214867 
L 290.193488 436.133445 
L 290.759746 443.945968 
L 291.326004 337.023358 
L 291.892262 337.34347 
L 292.45852 281.486732 
L 293.024778 300.578919 
L 293.591036 373.765635 
L 294.157294 396.039853 
L 294.723552 396.039853 
L 295.28981 345.246999 
L 295.856068 310.487128 
L 296.422326 351.491417 
L 296.988584 402.403915 
L 297.554841 267.604803 
L 298.121099 268.346217 
L 298.687357 256.030483 
L 299.253615 129.736305 
L 299.819873 236.938297 
L 300.386131 156.453911 
L 300.952389 240.675274 
L 301.518647 241.337773 
L 302.084905 248.692083 
L 302.651163 249.054835 
L 303.217421 399.85829 
L 303.783679 399.85829 
L 304.349937 465.123658 
L 304.916195 481.954693 
L 305.482452 476.402049 
L 306.04871 395.04515 
L 307.181226 445.347334 
L 307.747484 445.831639 
L 308.313742 445.831639 
L 308.88 447.077086 
L 309.446258 447.208822 
L 310.012516 477.190556 
L 310.578774 477.333747 
L 311.71129 491.779532 
L 312.277548 508.030802 
L 312.843805 403.179694 
L 313.410063 426.013313 
L 313.976321 399.85829 
L 315.675095 399.85829 
L 316.241353 408.767977 
L 316.807611 408.767977 
L 317.373869 323.489543 
L 317.940127 323.489543 
L 318.506385 399.317345 
L 319.072643 437.939566 
L 319.638901 453.261682 
L 320.205159 453.388327 
L 320.771416 313.307044 
L 321.337674 276.063278 
L 321.903932 287.057832 
L 322.47019 287.313668 
L 323.036448 290.571431 
L 323.602706 290.840631 
L 324.168964 290.923364 
L 324.735222 310.487128 
L 325.30148 314.646679 
L 325.867738 321.526866 
L 326.433996 330.080166 
L 327.000254 356.369471 
L 327.566512 367.976247 
L 328.13277 298.033294 
L 328.699027 298.033294 
L 329.265285 535.412816 
L 329.831543 310.125012 
L 330.397801 329.217199 
L 330.964059 232.557276 
L 331.530317 298.033294 
L 332.096575 333.154644 
L 332.662833 429.769383 
L 333.229091 418.27525 
L 333.795349 415.132039 
L 334.361607 462.036451 
L 334.927865 464.771725 
L 335.494123 466.680944 
L 336.060381 414.766106 
L 336.626638 430.214867 
L 337.192896 437.939566 
L 337.759154 461.725885 
L 338.325412 461.884986 
L 338.89167 461.884986 
L 339.457928 464.974738 
L 340.024186 469.495132 
L 340.590444 476.45678 
L 341.156702 380.239159 
L 341.72296 392.857822 
L 342.289218 392.857822 
L 342.855476 415.132039 
L 343.421734 441.801279 
L 343.987992 284.223915 
L 344.554249 329.285295 
L 345.120507 329.574859 
L 345.686765 138.931738 
L 346.253023 333.938697 
L 346.819281 338.294898 
L 347.951797 339.340513 
L 348.518055 360.947141 
L 349.084313 306.070468 
L 349.650571 306.14811 
L 350.216829 313.809168 
L 350.783087 314.349477 
L 351.349345 314.646679 
L 351.915603 329.574859 
L 353.048118 330.080166 
L 353.614376 353.539372 
L 354.180634 353.743659 
L 354.746892 360.496565 
L 355.31315 360.69576 
L 355.879408 362.043032 
L 356.445666 362.043032 
L 357.578182 362.490426 
L 358.14444 368.163987 
L 358.710698 368.664203 
L 359.276956 375.714947 
L 359.843214 375.714947 
L 360.409471 375.957418 
L 360.975729 383.45301 
L 361.541987 383.629295 
L 362.674503 384.641181 
L 363.240761 399.68837 
L 363.807019 400.302502 
L 364.373277 322.884957 
L 364.939535 457.13485 
L 365.505793 387.730933 
L 366.072051 298.033294 
L 366.638309 298.033294 
L 367.204567 319.671106 
L 367.770825 186.025799 
L 368.337082 112.615068 
L 368.90334 383.678298 
L 369.469598 383.868584 
L 370.035856 422.143963 
L 370.602114 422.490805 
L 371.168372 426.352518 
L 371.73463 433.869111 
L 372.300888 438.114577 
L 372.867146 462.862506 
L 373.433404 368.419823 
L 373.999662 368.419823 
L 374.56592 397.463493 
L 375.132178 399.148697 
L 375.698436 399.317345 
L 376.264693 406.653199 
L 376.830951 410.744018 
L 377.397209 410.903756 
L 377.963467 445.554166 
L 379.095983 445.663628 
L 379.662241 446.436225 
L 380.228499 461.267036 
L 380.794757 441.48944 
L 381.361015 346.01896 
L 381.927273 373.397156 
L 382.493531 469.290209 
L 383.059789 422.917833 
L 383.626047 430.656533 
L 384.192304 384.641181 
L 384.758562 275.727256 
L 385.32482 310.23702 
L 385.891078 333.428936 
L 386.457336 333.659951 
L 387.023594 345.632661 
L 387.589852 271.940639 
L 388.15611 329.217199 
L 388.722368 329.853605 
L 389.288626 338.568552 
L 389.854884 380.766103 
L 390.9874 394.76704 
L 391.553658 396.039853 
L 392.119915 396.039853 
L 392.686173 221.917201 
L 393.252431 275.727256 
L 393.818689 279.327406 
L 394.384947 279.589605 
L 394.951205 283.965535 
L 395.517463 284.551665 
L 396.083721 287.057832 
L 396.649979 287.313668 
L 397.216237 294.463055 
L 397.782495 321.526866 
L 398.348753 321.769973 
L 398.915011 331.82201 
L 399.481268 332.395412 
L 400.047526 345.422647 
L 400.613784 348.833148 
L 401.180042 349.372184 
L 401.7463 360.496565 
L 402.312558 360.496565 
L 402.878816 360.69576 
L 403.445074 360.69576 
L 404.011332 371.845597 
L 404.57759 372.030155 
L 405.143848 375.957418 
L 405.710106 376.144521 
L 406.276364 291.032826 
L 406.842622 314.114007 
L 407.408879 314.349477 
L 407.975137 314.349477 
L 408.541395 310.761419 
L 409.107653 329.853605 
L 409.673911 329.853605 
L 410.240169 348.945792 
L 410.806427 113.388938 
L 411.372685 132.567676 
L 411.938943 459.680475 
L 412.505201 545.595315 
L 413.071459 548.777346 
L 413.637717 422.68109 
L 414.203975 452.690189 
L 414.770233 469.862975 
L 415.33649 476.402049 
L 415.902748 476.698614 
L 416.469006 477.333747 
L 417.035264 447.588757 
L 417.601522 368.321816 
L 418.16778 403.013592 
L 418.734038 406.879123 
L 419.300296 407.042043 
L 419.866554 414.964665 
L 420.432812 450.002009 
L 420.99907 461.884986 
L 421.565328 396.039853 
L 422.131586 444.406726 
L 422.697844 465.884799 
L 423.264101 466.055993 
L 423.830359 385.413778 
L 424.396617 387.730933 
L 424.962875 403.042867 
L 425.529133 403.179694 
L 426.095391 403.179694 
L 426.661649 406.907762 
L 428.926681 406.907762 
L 429.492939 407.042043 
L 432.324228 407.042043 
L 433.456744 414.636915 
L 434.023002 414.636915 
L 434.58926 414.766106 
L 435.721776 414.766106 
L 436.288034 418.628455 
L 436.854292 445.347334 
L 437.42055 430.214867 
L 437.986808 335.581261 
L 438.553066 391.191074 
L 439.119323 391.448818 
L 439.685581 411.950008 
L 440.251839 411.950008 
L 440.818097 384.492262 
L 441.384355 384.641181 
L 441.950613 415.17977 
L 442.516871 275.12267 
L 443.083129 345.246999 
L 443.649387 317.125481 
L 444.215645 329.853605 
L 444.781903 360.486383 
L 445.914419 360.947141 
L 447.046934 360.947141 
L 447.613192 361.467721 
L 448.17945 260.629791 
L 448.745708 260.629791 
L 449.311966 267.779179 
L 449.878224 268.346217 
L 450.444482 283.192937 
L 451.01074 283.779704 
L 451.576998 285.512002 
L 452.143256 286.09495 
L 452.709514 290.594342 
L 453.275772 290.840631 
L 453.84203 298.332405 
L 454.408288 299.213191 
L 454.974545 307.198817 
L 455.540803 307.701578 
L 456.107061 314.948972 
L 456.673319 315.197806 
L 457.239577 321.580324 
L 457.805835 345.513653 
L 458.938351 256.005027 
L 459.504609 256.77126 
L 460.070867 306.942981 
L 460.637125 326.035168 
L 461.203383 329.853605 
L 461.769641 342.58173 
L 462.335899 361.03751 
L 462.902156 315.121438 
L 463.468414 315.121438 
L 464.034672 240.295976 
L 464.60093 251.902753 
L 465.167188 135.829258 
L 465.733446 446.602964 
L 466.299704 476.698614 
L 466.865962 461.265127 
L 467.43222 475.540991 
L 467.998478 403.322885 
L 468.564736 403.565993 
L 469.130994 445.663628 
L 469.697252 446.436225 
L 470.26351 360.238184 
L 470.829767 402.798487 
L 471.396025 407.247603 
L 471.962283 422.143963 
L 472.528541 422.143963 
L 473.094799 422.490805 
L 473.661057 437.620726 
L 474.793573 437.939566 
L 475.359831 445.663628 
L 475.926089 555.141409 
L 476.492347 400.089942 
L 477.058605 418.261249 
L 477.624863 422.339976 
L 478.191121 422.339976 
L 478.757378 422.490805 
L 479.323636 422.490805 
L 479.889894 349.108712 
L 480.456152 368.419823 
L 481.02241 372.359177 
L 481.588668 383.678298 
L 482.154926 384.09769 
L 482.721184 391.448818 
L 483.287442 391.593282 
L 483.8537 414.766106 
L 484.419958 344.742965 
L 484.986216 345.035712 
L 485.552474 326.035168 
L 486.118732 384.22688 
L 486.684989 384.492262 
L 487.251247 398.929773 
L 487.817505 399.177972 
L 488.383763 325.415945 
L 488.950021 387.130166 
L 490.082537 399.22252 
L 490.648795 399.85829 
L 491.215053 399.85829 
L 491.781311 406.222352 
L 492.347569 406.222352 
L 492.913827 400.089942 
L 493.480085 253.484858 
L 494.046342 253.484858 
L 494.6126 254.757671 
L 495.178858 254.757671 
L 495.745116 285.30517 
L 496.311374 325.749422 
L 496.877632 329.853605 
L 497.44389 259.276155 
L 498.010148 314.349477 
L 498.576406 333.337293 
L 499.142664 333.659951 
L 499.708922 268.775154 
L 500.27518 290.594342 
L 500.841438 290.594342 
L 501.407696 291.176017 
L 501.973953 307.397375 
L 502.540211 309.939818 
L 503.106469 310.564133 
L 503.672727 290.594342 
L 504.238985 325.415945 
L 504.805243 325.636141 
L 505.371501 326.222271 
L 505.937759 298.033294 
L 506.504017 300.578919 
L 507.070275 310.125012 
L 507.636533 337.294467 
L 508.202791 337.5223 
L 508.769049 360.947141 
L 509.335307 260.822622 
L 509.901564 261.401115 
L 510.467822 267.779179 
L 511.03408 268.346217 
L 511.600338 282.856279 
L 512.166596 286.724992 
L 512.732854 286.724992 
L 513.86537 287.313668 
L 514.431628 290.840631 
L 514.997886 290.967276 
L 515.564144 291.496766 
L 516.130402 294.832171 
L 516.69666 295.355297 
L 517.262918 306.049467 
L 517.829175 306.070468 
L 518.961691 306.624778 
L 519.527949 307.97205 
L 520.094207 308.473538 
L 520.660465 310.17147 
L 521.226723 310.788784 
L 521.792981 313.809168 
L 522.359239 314.155373 
L 522.925497 314.646679 
L 523.491755 319.566099 
L 524.058013 320.048495 
L 524.624271 325.415945 
L 525.190529 325.415945 
L 525.756786 325.636141 
L 526.323044 330.059165 
L 526.889302 341.655759 
L 527.45556 298.033294 
L 528.021818 336.217668 
L 528.588076 520.775473 
L 529.154334 291.948614 
L 529.720592 291.948614 
L 530.28685 232.557276 
L 530.853108 240.295976 
L 531.419366 240.538447 
L 531.985624 128.749239 
L 532.551882 222.93736 
L 533.11814 121.728405 
L 533.684397 481.954693 
L 534.250655 520.775473 
L 534.816913 402.403915 
L 535.383171 361.673917 
L 536.515687 445.468888 
L 537.648203 383.311728 
L 538.214461 399.221884 
L 538.780719 399.221884 
L 539.346977 406.222352 
L 539.913235 406.222352 
L 540.479493 412.586414 
L 541.045751 322.363741 
L 541.612008 325.935889 
L 542.178266 326.222271 
L 542.744524 360.496565 
L 543.310782 360.69576 
L 543.87704 383.868584 
L 544.443298 384.09769 
L 545.009556 387.730933 
L 545.575814 406.879123 
L 546.142072 407.042043 
L 546.70833 407.652357 
L 547.274588 407.814004 
L 547.840846 414.60955 
L 548.407104 414.766106 
L 548.973362 418.628455 
L 549.539619 342.58173 
L 550.105877 364.219541 
L 550.672135 373.765635 
L 551.238393 312.901016 
L 551.804651 376.144521 
L 552.370909 395.454995 
L 553.503425 395.454995 
L 554.069683 415.538703 
L 554.635941 364.089715 
L 555.202199 387.956221 
L 555.768457 393.49741 
L 556.334715 427.860164 
L 556.900973 368.260721 
L 557.46723 368.419823 
L 558.033488 297.460529 
L 558.599746 321.547231 
L 559.166004 322.617667 
L 559.732262 322.846136 
L 560.29852 287.638235 
L 560.864778 319.989309 
L 561.431036 368.037979 
L 561.997294 462.863143 
L 562.563552 287.313668 
L 563.12981 287.313668 
L 563.696068 314.349477 
L 564.262326 321.844433 
L 564.828584 322.363741 
L 565.394841 351.491417 
L 565.961099 306.844338 
L 566.527357 309.939818 
L 567.093615 245.211578 
L 567.659873 245.211578 
L 568.226131 217.483995 
L 568.792389 236.426626 
L 569.358647 240.756734 
L 569.924905 361.673917 
L 570.491163 361.673917 
L 571.057421 384.486534 
L 572.189937 201.935954 
L 572.756195 300.578919 
L 573.322452 268.003194 
L 573.88871 283.451955 
L 575.021226 290.594342 
L 575.587484 290.594342 
L 576.153742 291.496766 
L 576.72 298.572967 
L 577.286258 299.213191 
L 577.852516 313.809168 
L 578.418774 314.646679 
L 578.985032 314.646679 
L 579.55129 319.671106 
L 580.117548 319.671106 
L 580.683805 323.489543 
L 581.250063 399.22252 
L 581.816321 147.436671 
L 582.948837 232.557276 
L 583.515095 236.426626 
L 584.081353 236.938297 
L 584.647611 176.479705 
L 585.213869 216.056536 
L 585.780127 387.553376 
L 586.346385 387.956221 
L 586.912643 403.179694 
L 587.478901 426.352518 
L 588.045159 372.282172 
L 588.611416 481.955329 
L 589.177674 290.270411 
L 589.743932 298.900716 
L 590.31019 314.114007 
L 590.876448 314.349477 
L 591.442706 325.935889 
L 592.008964 368.226991 
L 592.575222 368.419823 
L 593.14148 384.09769 
L 593.707738 384.09769 
L 594.273996 384.641181 
L 594.840254 300.578919 
L 595.406512 361.03751 
L 595.97277 361.03751 
L 596.539027 310.487128 
L 597.105285 362.310323 
L 597.671543 327.737555 
L 598.237801 260.415322 
L 598.804059 260.822622 
L 599.370317 282.856279 
L 599.936575 283.071384 
L 600.502833 267.379516 
L 601.069091 267.732085 
L 601.635349 267.732085 
L 602.201607 268.346217 
L 602.767865 268.346217 
L 603.334123 269.277915 
L 603.900381 269.547752 
L 604.466638 275.727256 
L 605.032896 275.727256 
L 605.599154 287.057832 
L 606.165412 287.313668 
L 606.73167 290.594342 
L 607.864186 291.176017 
L 608.430444 309.939818 
L 609.56296 310.487128 
L 610.129218 310.487128 
L 610.695476 314.114007 
L 611.827992 314.646679 
L 612.394249 322.073539 
L 612.960507 323.094971 
L 613.526765 323.3909 
L 614.093023 323.907026 
L 614.659281 323.907026 
L 615.225539 345.035712 
L 615.791797 346.01896 
L 616.358055 352.500121 
L 616.924313 362.043032 
L 617.490571 362.240318 
L 618.056829 364.362096 
L 619.189345 364.805672 
L 619.755603 367.976247 
L 620.32186 372.522733 
L 620.888118 268.758608 
L 621.454376 268.758608 
L 622.020634 329.798238 
L 622.586892 271.940639 
L 623.15315 278.941107 
L 623.719408 329.217199 
L 624.285666 232.557276 
L 624.851924 232.944848 
L 625.418182 343.988188 
L 625.98444 392.279965 
L 626.550698 240.538447 
L 627.116956 240.660637 
L 628.249471 241.337773 
L 628.815729 285.30517 
L 629.381987 194.292716 
L 629.948245 194.621101 
L 630.514503 229.079953 
L 631.080761 229.380973 
L 631.647019 237.105671 
L 632.213277 281.284992 
L 632.779535 282.236419 
L 633.345793 329.853605 
L 633.912051 329.853605 
L 634.478309 182.843768 
L 635.610825 278.941107 
L 636.177082 111.6 
L 636.74334 115.516444 
L 637.309598 233.756266 
L 637.875856 233.756266 
L 638.442114 244.829734 
L 639.008372 245.196304 
L 639.57463 245.196304 
L 640.140888 251.902753 
L 640.707146 252.320235 
L 641.273404 252.912729 
L 641.839662 252.912729 
L 642.40592 271.248865 
L 642.972178 271.509792 
L 644.104693 307.156814 
L 644.670951 307.701578 
L 645.237209 415.735989 
L 645.803467 373.766271 
L 646.369725 491.500786 
L 646.935983 310.125649 
L 647.502241 310.125649 
L 648.068499 267.379516 
L 648.634757 309.939818 
L 649.201015 310.249112 
L 649.767273 405.585946 
L 650.333531 298.332405 
L 650.899789 298.653154 
L 651.466047 328.253044 
L 652.032304 340.892708 
L 652.598562 341.170817 
L 653.16482 353.539372 
L 653.731078 354.00204 
L 654.297336 370.311858 
L 654.863594 304.397356 
L 655.429852 324.292688 
L 655.99611 329.798238 
L 656.562368 361.719101 
L 657.128626 383.719665 
L 657.694884 384.09769 
L 658.261142 325.698509 
L 658.8274 326.222271 
L 659.393658 329.574859 
L 659.959915 329.798238 
L 660.526173 329.798238 
L 661.092431 333.659951 
L 661.658689 414.391899 
L 662.224947 329.853605 
L 662.791205 298.696429 
L 663.357463 299.213191 
L 663.923721 345.513653 
L 665.056237 368.888218 
L 665.622495 236.938297 
L 666.188753 236.938297 
L 666.755011 282.856279 
L 667.321268 283.238122 
L 667.887526 306.844338 
L 668.453784 307.397375 
L 669.020042 261.083549 
L 669.5863 261.709772 
L 670.152558 271.864907 
L 670.718816 287.057832 
L 671.851332 287.638235 
L 672.41759 291.176017 
L 672.983848 309.939818 
L 673.550106 310.487128 
L 674.116364 322.321101 
L 674.682622 322.617667 
L 675.248879 329.798238 
L 675.815137 267.379516 
L 676.381395 267.732085 
L 676.947653 266.212983 
L 677.513911 122.210801 
L 678.080169 197.706399 
L 678.646427 225.249424 
L 679.212685 267.355332 
L 679.778943 275.094032 
L 680.345201 113.123557 
L 680.911459 114.011343 
L 681.477717 120.318765 
L 682.610233 120.318765 
L 683.17649 120.921442 
L 683.742748 221.65691 
L 684.309006 249.666421 
L 684.875264 266.212983 
L 685.441522 268.758608 
L 686.00778 232.944848 
L 686.574038 232.997033 
L 687.140296 233.621347 
L 687.706554 233.621347 
L 688.272812 248.312785 
L 688.83907 249.054835 
L 689.405328 267.779179 
L 689.971586 268.346217 
L 691.104101 283.192937 
L 691.670359 283.779704 
L 692.236617 287.102381 
L 692.802875 287.638235 
L 693.369133 201.999595 
L 693.935391 201.999595 
L 694.501649 113.515583 
L 695.067907 423.042569 
L 696.200423 423.453051 
L 696.766681 313.751255 
L 697.332939 313.766529 
L 697.899197 317.677881 
L 698.465455 317.979538 
L 699.031712 322.321101 
L 699.59797 325.415945 
L 700.164228 348.901244 
L 700.730486 349.108712 
L 701.296744 306.270936 
L 701.863002 306.624778 
L 702.42926 325.709964 
L 702.995518 171.448278 
L 703.561776 290.967276 
L 704.128034 291.496766 
L 704.694292 307.198817 
L 705.26055 307.701578 
L 705.826808 309.918817 
L 706.393066 321.526866 
L 706.959323 321.844433 
L 707.525581 355.267852 
L 708.091839 422.066958 
L 708.658097 188.047025 
L 709.224355 298.033294 
L 709.790613 166.782784 
L 710.356871 298.033294 
L 710.923129 306.070468 
L 711.489387 309.939818 
L 712.055645 310.290478 
L 712.621903 164.306527 
L 713.188161 237.105671 
L 713.754419 237.105671 
L 714.320677 260.629791 
L 714.886934 306.070468 
L 715.453192 306.070468 
L 717.151966 306.930253 
L 717.718224 307.856224 
L 718.284482 310.788784 
L 718.85074 321.844433 
L 719.416998 322.363741 
L 719.983256 333.440391 
L 720.549514 333.659951 
L 721.115772 387.119347 
L 721.68203 240.756734 
L 722.248288 240.756734 
L 722.814545 283.192937 
L 723.380803 283.451955 
L 723.947061 244.164689 
L 724.513319 244.540805 
L 725.079577 260.105392 
L 725.645835 136.314836 
L 726.212093 136.688406 
L 726.778351 177.116112 
L 727.344609 177.116112 
L 727.910867 131.926815 
L 728.477125 168.221698 
L 729.043383 170.347931 
L 729.609641 190.272537 
L 730.175899 191.17878 
L 730.742156 192.389861 
L 731.308414 234.392672 
L 731.874672 240.120328 
L 732.44093 264.488322 
L 733.007188 269.118177 
L 733.573446 269.118177 
L 734.139704 191.17878 
L 735.27222 223.271473 
L 735.838478 223.66859 
L 736.404736 236.861928 
L 736.970994 237.479242 
L 737.537252 237.479242 
L 738.10351 159.340013 
L 738.669767 160.311805 
L 739.236025 113.103828 
L 739.802283 113.515583 
L 740.368541 113.515583 
L 740.934799 173.658517 
L 741.501057 207.547784 
L 742.067315 213.564369 
L 742.633573 259.212514 
L 743.199831 179.661736 
L 743.766089 335.495983 
L 744.332347 181.266117 
L 744.898605 453.07076 
L 745.464863 462.537939 
L 746.031121 508.047348 
L 746.597378 208.472483 
L 747.163636 418.628455 
L 747.163636 418.628455 
" style="fill:none;stroke:#708090;stroke-dasharray:196,2;stroke-dashoffset:0;stroke-width:2;"/>
   </g>
   <g id="line2d_18">
    <path clip-path="url(#p4bea9b7307)" d="M 138.436364 615.588545 
L 747.163636 615.588545 
L 747.163636 615.588545 
" style="fill:none;stroke:#ffe4c4;stroke-dasharray:192,2;stroke-dashoffset:0;stroke-width:2;"/>
   </g>
   <g id="patch_3">
    <path d="M 108 640.8 
L 108 86.4 
" style="fill:none;stroke:#000000;stroke-linecap:square;stroke-linejoin:miter;stroke-width:0.8;"/>
   </g>
   <g id="patch_4">
    <path d="M 777.6 640.8 
L 777.6 86.4 
" style="fill:none;stroke:#000000;stroke-linecap:square;stroke-linejoin:miter;stroke-width:0.8;"/>
   </g>
   <g id="patch_5">
    <path d="M 108 640.8 
L 777.6 640.8 
" style="fill:none;stroke:#000000;stroke-linecap:square;stroke-linejoin:miter;stroke-width:0.8;"/>
   </g>
   <g id="patch_6">
    <path d="M 108 86.4 
L 777.6 86.4 
" style="fill:none;stroke:#000000;stroke-linecap:square;stroke-linejoin:miter;stroke-width:0.8;"/>
   </g>
   <g id="text_18">
    <!-- 123 -->
    <g transform="translate(431.3475 80.4)scale(0.12 -0.12)">
     <use xlink:href="#DejaVuSans-31"/>
     <use x="63.623047" xlink:href="#DejaVuSans-32"/>
     <use x="127.246094" xlink:href="#DejaVuSans-33"/>
    </g>
   </g>
   <g id="legend_1">
    <g id="patch_7">
     <path d="M 115 138.434375 
L 159.28125 138.434375 
Q 161.28125 138.434375 161.28125 136.434375 
L 161.28125 93.4 
Q 161.28125 91.4 159.28125 91.4 
L 115 91.4 
Q 113 91.4 113 93.4 
L 113 136.434375 
Q 113 138.434375 115 138.434375 
z
" style="fill:#ffffff;opacity:0.8;stroke:#cccccc;stroke-linejoin:miter;"/>
    </g>
    <g id="line2d_19">
     <path d="M 117 99.498437 
L 137 99.498437 
" style="fill:none;stroke:#87ceeb;stroke-dasharray:200,2;stroke-dashoffset:0;stroke-width:2;"/>
    </g>
    <g id="line2d_20"/>
    <g id="text_19">
     <!-- x0 -->
     <g transform="translate(145 102.998437)scale(0.1 -0.1)">
      <use xlink:href="#DejaVuSans-78"/>
      <use x="59.179688" xlink:href="#DejaVuSans-30"/>
     </g>
    </g>
    <g id="line2d_21">
     <path d="M 117 114.176562 
L 137 114.176562 
" style="fill:none;stroke:#708090;stroke-dasharray:196,2;stroke-dashoffset:0;stroke-width:2;"/>
    </g>
    <g id="line2d_22"/>
    <g id="text_20">
     <!-- x1 -->
     <g transform="translate(145 117.676562)scale(0.1 -0.1)">
      <use xlink:href="#DejaVuSans-78"/>
      <use x="59.179688" xlink:href="#DejaVuSans-31"/>
     </g>
    </g>
    <g id="line2d_23">
     <path d="M 117 128.854687 
L 137 128.854687 
" style="fill:none;stroke:#ffe4c4;stroke-dasharray:192,2;stroke-dashoffset:0;stroke-width:2;"/>
    </g>
    <g id="line2d_24"/>
    <g id="text_21">
     <!-- x2 -->
     <g transform="translate(145 132.354687)scale(0.1 -0.1)">
      <use xlink:href="#DejaVuSans-78"/>
      <use x="59.179688" xlink:href="#DejaVuSans-32"/>
     </g>
    </g>
   </g>
  </g>
 </g>
 <defs>
  <clipPath id="p4bea9b7307">
   <rect height="554.4" width="669.6" x="108" y="86.4"/>
  </clipPath>
 </defs>
</svg>
