<?xml version="1.0" encoding="utf-8" standalone="no"?>
<!DOCTYPE svg PUBLIC "-//W3C//DTD SVG 1.1//EN"
  "http://www.w3.org/Graphics/SVG/1.1/DTD/svg11.dtd">
<svg height="720pt" version="1.1" viewBox="0 0 864 720" width="864pt" xmlns="http://www.w3.org/2000/svg" xmlns:xlink="http://www.w3.org/1999/xlink">
 <metadata>
  <rdf:RDF xmlns:cc="http://creativecommons.org/ns#" xmlns:dc="http://purl.org/dc/elements/1.1/" xmlns:rdf="http://www.w3.org/1999/02/22-rdf-syntax-ns#">
   <cc:Work>
    <dc:type rdf:resource="http://purl.org/dc/dcmitype/StillImage"/>
    <dc:date>2023-05-06T19:34:37.188885</dc:date>
    <dc:format>image/svg+xml</dc:format>
    <dc:creator>
     <cc:Agent>
      <dc:title>Matplotlib v3.4.3, https://matplotlib.org/</dc:title>
     </cc:Agent>
    </dc:creator>
   </cc:Work>
  </rdf:RDF>
 </metadata>
 <defs>
  <style type="text/css">*{stroke-linecap:butt;stroke-linejoin:round;}</style>
 </defs>
 <g id="figure_1">
  <g id="patch_1">
   <path d="M 0 720 
L 864 720 
L 864 0 
L 0 0 
z
" style="fill:#ffffff;"/>
  </g>
  <g id="axes_1">
   <g id="patch_2">
    <path d="M 108 640.8 
L 777.6 640.8 
L 777.6 86.4 
L 108 86.4 
z
" style="fill:#ffffff;"/>
   </g>
   <g id="matplotlib.axis_1">
    <g id="xtick_1">
     <g id="line2d_1">
      <defs>
       <path d="M 0 0 
L 0 3.5 
" id="meeee714862" style="stroke:#000000;stroke-width:0.8;"/>
      </defs>
      <g>
       <use style="stroke:#000000;stroke-width:0.8;" x="138.436364" xlink:href="#meeee714862" y="640.8"/>
      </g>
     </g>
     <g id="text_1">
      <!-- 0 -->
      <g transform="translate(135.255114 655.398438)scale(0.1 -0.1)">
       <defs>
        <path d="M 2034 4250 
Q 1547 4250 1301 3770 
Q 1056 3291 1056 2328 
Q 1056 1369 1301 889 
Q 1547 409 2034 409 
Q 2525 409 2770 889 
Q 3016 1369 3016 2328 
Q 3016 3291 2770 3770 
Q 2525 4250 2034 4250 
z
M 2034 4750 
Q 2819 4750 3233 4129 
Q 3647 3509 3647 2328 
Q 3647 1150 3233 529 
Q 2819 -91 2034 -91 
Q 1250 -91 836 529 
Q 422 1150 422 2328 
Q 422 3509 836 4129 
Q 1250 4750 2034 4750 
z
" id="DejaVuSans-30" transform="scale(0.015625)"/>
       </defs>
       <use xlink:href="#DejaVuSans-30"/>
      </g>
     </g>
    </g>
    <g id="xtick_2">
     <g id="line2d_2">
      <g>
       <use style="stroke:#000000;stroke-width:0.8;" x="251.687949" xlink:href="#meeee714862" y="640.8"/>
      </g>
     </g>
     <g id="text_2">
      <!-- 200 -->
      <g transform="translate(242.144199 655.398438)scale(0.1 -0.1)">
       <defs>
        <path d="M 1228 531 
L 3431 531 
L 3431 0 
L 469 0 
L 469 531 
Q 828 903 1448 1529 
Q 2069 2156 2228 2338 
Q 2531 2678 2651 2914 
Q 2772 3150 2772 3378 
Q 2772 3750 2511 3984 
Q 2250 4219 1831 4219 
Q 1534 4219 1204 4116 
Q 875 4013 500 3803 
L 500 4441 
Q 881 4594 1212 4672 
Q 1544 4750 1819 4750 
Q 2544 4750 2975 4387 
Q 3406 4025 3406 3419 
Q 3406 3131 3298 2873 
Q 3191 2616 2906 2266 
Q 2828 2175 2409 1742 
Q 1991 1309 1228 531 
z
" id="DejaVuSans-32" transform="scale(0.015625)"/>
       </defs>
       <use xlink:href="#DejaVuSans-32"/>
       <use x="63.623047" xlink:href="#DejaVuSans-30"/>
       <use x="127.246094" xlink:href="#DejaVuSans-30"/>
      </g>
     </g>
    </g>
    <g id="xtick_3">
     <g id="line2d_3">
      <g>
       <use style="stroke:#000000;stroke-width:0.8;" x="364.939535" xlink:href="#meeee714862" y="640.8"/>
      </g>
     </g>
     <g id="text_3">
      <!-- 400 -->
      <g transform="translate(355.395785 655.398438)scale(0.1 -0.1)">
       <defs>
        <path d="M 2419 4116 
L 825 1625 
L 2419 1625 
L 2419 4116 
z
M 2253 4666 
L 3047 4666 
L 3047 1625 
L 3713 1625 
L 3713 1100 
L 3047 1100 
L 3047 0 
L 2419 0 
L 2419 1100 
L 313 1100 
L 313 1709 
L 2253 4666 
z
" id="DejaVuSans-34" transform="scale(0.015625)"/>
       </defs>
       <use xlink:href="#DejaVuSans-34"/>
       <use x="63.623047" xlink:href="#DejaVuSans-30"/>
       <use x="127.246094" xlink:href="#DejaVuSans-30"/>
      </g>
     </g>
    </g>
    <g id="xtick_4">
     <g id="line2d_4">
      <g>
       <use style="stroke:#000000;stroke-width:0.8;" x="478.191121" xlink:href="#meeee714862" y="640.8"/>
      </g>
     </g>
     <g id="text_4">
      <!-- 600 -->
      <g transform="translate(468.647371 655.398438)scale(0.1 -0.1)">
       <defs>
        <path d="M 2113 2584 
Q 1688 2584 1439 2293 
Q 1191 2003 1191 1497 
Q 1191 994 1439 701 
Q 1688 409 2113 409 
Q 2538 409 2786 701 
Q 3034 994 3034 1497 
Q 3034 2003 2786 2293 
Q 2538 2584 2113 2584 
z
M 3366 4563 
L 3366 3988 
Q 3128 4100 2886 4159 
Q 2644 4219 2406 4219 
Q 1781 4219 1451 3797 
Q 1122 3375 1075 2522 
Q 1259 2794 1537 2939 
Q 1816 3084 2150 3084 
Q 2853 3084 3261 2657 
Q 3669 2231 3669 1497 
Q 3669 778 3244 343 
Q 2819 -91 2113 -91 
Q 1303 -91 875 529 
Q 447 1150 447 2328 
Q 447 3434 972 4092 
Q 1497 4750 2381 4750 
Q 2619 4750 2861 4703 
Q 3103 4656 3366 4563 
z
" id="DejaVuSans-36" transform="scale(0.015625)"/>
       </defs>
       <use xlink:href="#DejaVuSans-36"/>
       <use x="63.623047" xlink:href="#DejaVuSans-30"/>
       <use x="127.246094" xlink:href="#DejaVuSans-30"/>
      </g>
     </g>
    </g>
    <g id="xtick_5">
     <g id="line2d_5">
      <g>
       <use style="stroke:#000000;stroke-width:0.8;" x="591.442706" xlink:href="#meeee714862" y="640.8"/>
      </g>
     </g>
     <g id="text_5">
      <!-- 800 -->
      <g transform="translate(581.898956 655.398438)scale(0.1 -0.1)">
       <defs>
        <path d="M 2034 2216 
Q 1584 2216 1326 1975 
Q 1069 1734 1069 1313 
Q 1069 891 1326 650 
Q 1584 409 2034 409 
Q 2484 409 2743 651 
Q 3003 894 3003 1313 
Q 3003 1734 2745 1975 
Q 2488 2216 2034 2216 
z
M 1403 2484 
Q 997 2584 770 2862 
Q 544 3141 544 3541 
Q 544 4100 942 4425 
Q 1341 4750 2034 4750 
Q 2731 4750 3128 4425 
Q 3525 4100 3525 3541 
Q 3525 3141 3298 2862 
Q 3072 2584 2669 2484 
Q 3125 2378 3379 2068 
Q 3634 1759 3634 1313 
Q 3634 634 3220 271 
Q 2806 -91 2034 -91 
Q 1263 -91 848 271 
Q 434 634 434 1313 
Q 434 1759 690 2068 
Q 947 2378 1403 2484 
z
M 1172 3481 
Q 1172 3119 1398 2916 
Q 1625 2713 2034 2713 
Q 2441 2713 2670 2916 
Q 2900 3119 2900 3481 
Q 2900 3844 2670 4047 
Q 2441 4250 2034 4250 
Q 1625 4250 1398 4047 
Q 1172 3844 1172 3481 
z
" id="DejaVuSans-38" transform="scale(0.015625)"/>
       </defs>
       <use xlink:href="#DejaVuSans-38"/>
       <use x="63.623047" xlink:href="#DejaVuSans-30"/>
       <use x="127.246094" xlink:href="#DejaVuSans-30"/>
      </g>
     </g>
    </g>
    <g id="xtick_6">
     <g id="line2d_6">
      <g>
       <use style="stroke:#000000;stroke-width:0.8;" x="704.694292" xlink:href="#meeee714862" y="640.8"/>
      </g>
     </g>
     <g id="text_6">
      <!-- 1000 -->
      <g transform="translate(691.969292 655.398438)scale(0.1 -0.1)">
       <defs>
        <path d="M 794 531 
L 1825 531 
L 1825 4091 
L 703 3866 
L 703 4441 
L 1819 4666 
L 2450 4666 
L 2450 531 
L 3481 531 
L 3481 0 
L 794 0 
L 794 531 
z
" id="DejaVuSans-31" transform="scale(0.015625)"/>
       </defs>
       <use xlink:href="#DejaVuSans-31"/>
       <use x="63.623047" xlink:href="#DejaVuSans-30"/>
       <use x="127.246094" xlink:href="#DejaVuSans-30"/>
       <use x="190.869141" xlink:href="#DejaVuSans-30"/>
      </g>
     </g>
    </g>
    <g id="text_7">
     <!-- xlabel -->
     <g transform="translate(427.747656 669.076563)scale(0.1 -0.1)">
      <defs>
       <path d="M 3513 3500 
L 2247 1797 
L 3578 0 
L 2900 0 
L 1881 1375 
L 863 0 
L 184 0 
L 1544 1831 
L 300 3500 
L 978 3500 
L 1906 2253 
L 2834 3500 
L 3513 3500 
z
" id="DejaVuSans-78" transform="scale(0.015625)"/>
       <path d="M 603 4863 
L 1178 4863 
L 1178 0 
L 603 0 
L 603 4863 
z
" id="DejaVuSans-6c" transform="scale(0.015625)"/>
       <path d="M 2194 1759 
Q 1497 1759 1228 1600 
Q 959 1441 959 1056 
Q 959 750 1161 570 
Q 1363 391 1709 391 
Q 2188 391 2477 730 
Q 2766 1069 2766 1631 
L 2766 1759 
L 2194 1759 
z
M 3341 1997 
L 3341 0 
L 2766 0 
L 2766 531 
Q 2569 213 2275 61 
Q 1981 -91 1556 -91 
Q 1019 -91 701 211 
Q 384 513 384 1019 
Q 384 1609 779 1909 
Q 1175 2209 1959 2209 
L 2766 2209 
L 2766 2266 
Q 2766 2663 2505 2880 
Q 2244 3097 1772 3097 
Q 1472 3097 1187 3025 
Q 903 2953 641 2809 
L 641 3341 
Q 956 3463 1253 3523 
Q 1550 3584 1831 3584 
Q 2591 3584 2966 3190 
Q 3341 2797 3341 1997 
z
" id="DejaVuSans-61" transform="scale(0.015625)"/>
       <path d="M 3116 1747 
Q 3116 2381 2855 2742 
Q 2594 3103 2138 3103 
Q 1681 3103 1420 2742 
Q 1159 2381 1159 1747 
Q 1159 1113 1420 752 
Q 1681 391 2138 391 
Q 2594 391 2855 752 
Q 3116 1113 3116 1747 
z
M 1159 2969 
Q 1341 3281 1617 3432 
Q 1894 3584 2278 3584 
Q 2916 3584 3314 3078 
Q 3713 2572 3713 1747 
Q 3713 922 3314 415 
Q 2916 -91 2278 -91 
Q 1894 -91 1617 61 
Q 1341 213 1159 525 
L 1159 0 
L 581 0 
L 581 4863 
L 1159 4863 
L 1159 2969 
z
" id="DejaVuSans-62" transform="scale(0.015625)"/>
       <path d="M 3597 1894 
L 3597 1613 
L 953 1613 
Q 991 1019 1311 708 
Q 1631 397 2203 397 
Q 2534 397 2845 478 
Q 3156 559 3463 722 
L 3463 178 
Q 3153 47 2828 -22 
Q 2503 -91 2169 -91 
Q 1331 -91 842 396 
Q 353 884 353 1716 
Q 353 2575 817 3079 
Q 1281 3584 2069 3584 
Q 2775 3584 3186 3129 
Q 3597 2675 3597 1894 
z
M 3022 2063 
Q 3016 2534 2758 2815 
Q 2500 3097 2075 3097 
Q 1594 3097 1305 2825 
Q 1016 2553 972 2059 
L 3022 2063 
z
" id="DejaVuSans-65" transform="scale(0.015625)"/>
      </defs>
      <use xlink:href="#DejaVuSans-78"/>
      <use x="59.179688" xlink:href="#DejaVuSans-6c"/>
      <use x="86.962891" xlink:href="#DejaVuSans-61"/>
      <use x="148.242188" xlink:href="#DejaVuSans-62"/>
      <use x="211.71875" xlink:href="#DejaVuSans-65"/>
      <use x="273.242188" xlink:href="#DejaVuSans-6c"/>
     </g>
    </g>
   </g>
   <g id="matplotlib.axis_2">
    <g id="ytick_1">
     <g id="line2d_7">
      <defs>
       <path d="M 0 0 
L -3.5 0 
" id="m728d2f0dc6" style="stroke:#000000;stroke-width:0.8;"/>
      </defs>
      <g>
       <use style="stroke:#000000;stroke-width:0.8;" x="108" xlink:href="#m728d2f0dc6" y="615.6"/>
      </g>
     </g>
     <g id="text_8">
      <!-- 0 -->
      <g transform="translate(94.6375 619.399219)scale(0.1 -0.1)">
       <use xlink:href="#DejaVuSans-30"/>
      </g>
     </g>
    </g>
    <g id="ytick_2">
     <g id="line2d_8">
      <g>
       <use style="stroke:#000000;stroke-width:0.8;" x="108" xlink:href="#m728d2f0dc6" y="535.088818"/>
      </g>
     </g>
     <g id="text_9">
      <!-- 500 -->
      <g transform="translate(81.9125 538.888037)scale(0.1 -0.1)">
       <defs>
        <path d="M 691 4666 
L 3169 4666 
L 3169 4134 
L 1269 4134 
L 1269 2991 
Q 1406 3038 1543 3061 
Q 1681 3084 1819 3084 
Q 2600 3084 3056 2656 
Q 3513 2228 3513 1497 
Q 3513 744 3044 326 
Q 2575 -91 1722 -91 
Q 1428 -91 1123 -41 
Q 819 9 494 109 
L 494 744 
Q 775 591 1075 516 
Q 1375 441 1709 441 
Q 2250 441 2565 725 
Q 2881 1009 2881 1497 
Q 2881 1984 2565 2268 
Q 2250 2553 1709 2553 
Q 1456 2553 1204 2497 
Q 953 2441 691 2322 
L 691 4666 
z
" id="DejaVuSans-35" transform="scale(0.015625)"/>
       </defs>
       <use xlink:href="#DejaVuSans-35"/>
       <use x="63.623047" xlink:href="#DejaVuSans-30"/>
       <use x="127.246094" xlink:href="#DejaVuSans-30"/>
      </g>
     </g>
    </g>
    <g id="ytick_3">
     <g id="line2d_9">
      <g>
       <use style="stroke:#000000;stroke-width:0.8;" x="108" xlink:href="#m728d2f0dc6" y="454.577636"/>
      </g>
     </g>
     <g id="text_10">
      <!-- 1000 -->
      <g transform="translate(75.55 458.376855)scale(0.1 -0.1)">
       <use xlink:href="#DejaVuSans-31"/>
       <use x="63.623047" xlink:href="#DejaVuSans-30"/>
       <use x="127.246094" xlink:href="#DejaVuSans-30"/>
       <use x="190.869141" xlink:href="#DejaVuSans-30"/>
      </g>
     </g>
    </g>
    <g id="ytick_4">
     <g id="line2d_10">
      <g>
       <use style="stroke:#000000;stroke-width:0.8;" x="108" xlink:href="#m728d2f0dc6" y="374.066454"/>
      </g>
     </g>
     <g id="text_11">
      <!-- 1500 -->
      <g transform="translate(75.55 377.865672)scale(0.1 -0.1)">
       <use xlink:href="#DejaVuSans-31"/>
       <use x="63.623047" xlink:href="#DejaVuSans-35"/>
       <use x="127.246094" xlink:href="#DejaVuSans-30"/>
       <use x="190.869141" xlink:href="#DejaVuSans-30"/>
      </g>
     </g>
    </g>
    <g id="ytick_5">
     <g id="line2d_11">
      <g>
       <use style="stroke:#000000;stroke-width:0.8;" x="108" xlink:href="#m728d2f0dc6" y="293.555272"/>
      </g>
     </g>
     <g id="text_12">
      <!-- 2000 -->
      <g transform="translate(75.55 297.35449)scale(0.1 -0.1)">
       <use xlink:href="#DejaVuSans-32"/>
       <use x="63.623047" xlink:href="#DejaVuSans-30"/>
       <use x="127.246094" xlink:href="#DejaVuSans-30"/>
       <use x="190.869141" xlink:href="#DejaVuSans-30"/>
      </g>
     </g>
    </g>
    <g id="ytick_6">
     <g id="line2d_12">
      <g>
       <use style="stroke:#000000;stroke-width:0.8;" x="108" xlink:href="#m728d2f0dc6" y="213.044089"/>
      </g>
     </g>
     <g id="text_13">
      <!-- 2500 -->
      <g transform="translate(75.55 216.843308)scale(0.1 -0.1)">
       <use xlink:href="#DejaVuSans-32"/>
       <use x="63.623047" xlink:href="#DejaVuSans-35"/>
       <use x="127.246094" xlink:href="#DejaVuSans-30"/>
       <use x="190.869141" xlink:href="#DejaVuSans-30"/>
      </g>
     </g>
    </g>
    <g id="ytick_7">
     <g id="line2d_13">
      <g>
       <use style="stroke:#000000;stroke-width:0.8;" x="108" xlink:href="#m728d2f0dc6" y="132.532907"/>
      </g>
     </g>
     <g id="text_14">
      <!-- 3000 -->
      <g transform="translate(75.55 136.332126)scale(0.1 -0.1)">
       <defs>
        <path d="M 2597 2516 
Q 3050 2419 3304 2112 
Q 3559 1806 3559 1356 
Q 3559 666 3084 287 
Q 2609 -91 1734 -91 
Q 1441 -91 1130 -33 
Q 819 25 488 141 
L 488 750 
Q 750 597 1062 519 
Q 1375 441 1716 441 
Q 2309 441 2620 675 
Q 2931 909 2931 1356 
Q 2931 1769 2642 2001 
Q 2353 2234 1838 2234 
L 1294 2234 
L 1294 2753 
L 1863 2753 
Q 2328 2753 2575 2939 
Q 2822 3125 2822 3475 
Q 2822 3834 2567 4026 
Q 2313 4219 1838 4219 
Q 1578 4219 1281 4162 
Q 984 4106 628 3988 
L 628 4550 
Q 988 4650 1302 4700 
Q 1616 4750 1894 4750 
Q 2613 4750 3031 4423 
Q 3450 4097 3450 3541 
Q 3450 3153 3228 2886 
Q 3006 2619 2597 2516 
z
" id="DejaVuSans-33" transform="scale(0.015625)"/>
       </defs>
       <use xlink:href="#DejaVuSans-33"/>
       <use x="63.623047" xlink:href="#DejaVuSans-30"/>
       <use x="127.246094" xlink:href="#DejaVuSans-30"/>
       <use x="190.869141" xlink:href="#DejaVuSans-30"/>
      </g>
     </g>
    </g>
    <g id="text_15">
     <!-- ylabel -->
     <g transform="translate(56.497656 361.520312)scale(0.1 -0.1)">
      <defs>
       <path d="M 2059 -325 
Q 1816 -950 1584 -1140 
Q 1353 -1331 966 -1331 
L 506 -1331 
L 506 -850 
L 844 -850 
Q 1081 -850 1212 -737 
Q 1344 -625 1503 -206 
L 1606 56 
L 191 3500 
L 800 3500 
L 1894 763 
L 2988 3500 
L 3597 3500 
L 2059 -325 
z
" id="DejaVuSans-79" transform="scale(0.015625)"/>
      </defs>
      <use xlink:href="#DejaVuSans-79"/>
      <use x="59.179688" xlink:href="#DejaVuSans-6c"/>
      <use x="86.962891" xlink:href="#DejaVuSans-61"/>
      <use x="148.242188" xlink:href="#DejaVuSans-62"/>
      <use x="211.71875" xlink:href="#DejaVuSans-65"/>
      <use x="273.242188" xlink:href="#DejaVuSans-6c"/>
     </g>
    </g>
   </g>
   <g id="line2d_14">
    <path clip-path="url(#p1d1660d51a)" d="M 138.436364 612.701597 
L 152.592812 612.701597 
L 153.15907 612.86262 
L 187.700803 612.86262 
L 188.267061 613.023642 
L 201.857252 613.023642 
L 202.42351 613.184665 
L 261.880592 613.184665 
L 262.44685 613.345687 
L 274.904524 613.345687 
L 275.470782 613.506709 
L 302.651163 613.506709 
L 303.217421 613.667732 
L 332.096575 613.667732 
L 332.662833 613.828754 
L 368.337082 613.828754 
L 368.90334 613.989776 
L 411.372685 613.989776 
L 411.938943 614.150799 
L 465.167188 614.150799 
L 465.733446 614.311821 
L 533.11814 614.311821 
L 533.684397 614.472843 
L 585.213869 614.472843 
L 585.780127 614.633866 
L 649.201015 614.633866 
L 649.767273 614.794888 
L 694.501649 614.794888 
L 695.067907 614.955911 
L 740.368541 614.955911 
L 740.934799 615.6 
L 741.501057 615.277955 
L 742.067315 615.6 
L 742.633573 614.472843 
L 743.199831 614.633866 
L 743.766089 615.6 
L 744.332347 615.6 
L 744.898605 615.438978 
L 745.464863 612.701597 
L 746.031121 612.701597 
L 746.597378 612.86262 
L 747.163636 612.701597 
L 747.163636 612.701597 
" style="fill:none;stroke:#ffe4e1;stroke-dasharray:200,2;stroke-dashoffset:0;stroke-width:2;"/>
   </g>
   <g id="line2d_15">
    <path clip-path="url(#p1d1660d51a)" d="M 138.436364 615.6 
L 747.163636 615.6 
L 747.163636 615.6 
" style="fill:none;stroke:#a52a2a;stroke-dasharray:196,2;stroke-dashoffset:0;stroke-width:2;"/>
   </g>
   <g id="line2d_16">
    <path clip-path="url(#p1d1660d51a)" d="M 138.436364 613.163732 
L 139.002622 613.208818 
L 139.568879 264.120376 
L 140.135137 411.101597 
L 140.701395 605.357367 
L 141.267653 604.495898 
L 141.833911 604.495898 
L 142.400169 615.419655 
L 142.966427 385.338019 
L 143.532685 483.716246 
L 144.098943 264.120376 
L 144.665201 615.419655 
L 145.231459 264.120376 
L 146.363975 264.120376 
L 146.930233 615.419655 
L 147.49649 613.163732 
L 148.062748 613.163732 
L 148.629006 612.600153 
L 149.195264 264.120376 
L 149.761522 264.120376 
L 150.32778 613.163732 
L 150.894038 613.163732 
L 151.460296 264.120376 
L 152.026554 600.425253 
L 152.592812 614.946249 
L 153.15907 604.495898 
L 155.424101 604.495898 
L 155.990359 385.338019 
L 156.556617 111.6 
L 157.122875 385.338019 
L 157.689133 111.6 
L 158.255391 385.338019 
L 158.821649 581.001125 
L 159.387907 275.842812 
L 159.954165 506.50896 
L 160.520423 285.220752 
L 161.086681 264.120376 
L 161.652939 581.001125 
L 162.219197 581.001125 
L 162.785455 275.842812 
L 163.351712 581.001125 
L 165.050486 581.001125 
L 165.616744 264.120376 
L 166.183002 385.338019 
L 166.74926 275.842812 
L 167.315518 309.449783 
L 167.881776 264.120376 
L 168.448034 275.842812 
L 169.014292 264.120376 
L 169.58055 601.753687 
L 170.146808 601.753687 
L 170.713066 411.101597 
L 171.279323 411.101597 
L 171.845581 581.001125 
L 173.544355 581.001125 
L 174.110613 275.842812 
L 175.809387 275.842812 
L 176.375645 604.495898 
L 177.508161 604.495898 
L 178.074419 264.120376 
L 178.640677 613.163732 
L 179.206934 613.163732 
L 179.773192 275.842812 
L 180.33945 275.842812 
L 180.905708 601.753687 
L 181.471966 611.012473 
L 182.038224 581.001125 
L 182.604482 581.001125 
L 183.17074 613.163732 
L 183.736998 439.741839 
L 184.303256 385.338019 
L 184.869514 581.001125 
L 187.700803 581.001125 
L 188.267061 544.117343 
L 188.833319 581.001125 
L 189.399577 111.6 
L 189.965835 598.446288 
L 190.532093 544.117343 
L 191.098351 611.661393 
L 191.664609 613.163732 
L 192.230867 613.163732 
L 192.797125 579.383656 
L 193.363383 385.338019 
L 195.062156 385.338019 
L 195.628414 581.001125 
L 196.194672 581.001125 
L 196.76093 264.120376 
L 197.327188 544.117343 
L 197.893446 264.120376 
L 198.459704 581.001125 
L 199.025962 483.716246 
L 199.59222 512.331524 
L 200.158478 264.120376 
L 200.724736 138.973802 
L 201.290994 385.338019 
L 201.857252 275.842812 
L 202.42351 411.101597 
L 202.989767 275.842812 
L 203.556025 275.842812 
L 204.122283 264.120376 
L 204.688541 581.001125 
L 205.821057 581.001125 
L 206.387315 613.163732 
L 206.953573 614.649968 
L 207.519831 138.973802 
L 209.218605 138.973802 
L 209.784863 581.001125 
L 210.351121 581.001125 
L 210.917378 604.495898 
L 211.483636 601.753687 
L 212.049894 613.163732 
L 212.616152 613.163732 
L 213.18241 614.649968 
L 213.748668 445.246398 
L 214.314926 614.649968 
L 214.881184 438.642063 
L 215.447442 614.649968 
L 216.0137 614.649968 
L 216.579958 581.001125 
L 217.146216 581.001125 
L 217.712474 138.973802 
L 219.411247 138.973802 
L 219.977505 385.338019 
L 220.543763 385.338019 
L 221.110021 581.001125 
L 221.676279 581.001125 
L 222.242537 264.120376 
L 222.808795 544.117343 
L 223.375053 264.120376 
L 223.941311 275.842812 
L 224.507569 275.842812 
L 225.073827 264.120376 
L 225.640085 264.120376 
L 226.206342 615.408383 
L 226.7726 601.753687 
L 227.338858 613.163732 
L 227.905116 613.163732 
L 228.471374 138.973802 
L 229.037632 581.001125 
L 230.170148 581.001125 
L 230.736406 483.716246 
L 231.302664 483.716246 
L 231.868922 581.001125 
L 232.43518 613.208818 
L 233.567696 613.208818 
L 234.133953 600.425253 
L 234.700211 411.101597 
L 235.266469 411.101597 
L 235.832727 385.338019 
L 236.398985 385.338019 
L 236.965243 275.842812 
L 237.531501 483.716246 
L 238.097759 275.842812 
L 238.664017 138.973802 
L 239.230275 138.973802 
L 239.796533 483.716246 
L 241.495307 483.716246 
L 242.061564 604.495898 
L 242.627822 604.495898 
L 243.19408 544.117343 
L 243.760338 613.163732 
L 244.326596 264.120376 
L 244.892854 264.120376 
L 245.459112 613.163732 
L 247.157886 613.163732 
L 247.724144 604.495898 
L 248.290402 581.001125 
L 248.85666 275.842812 
L 249.422918 581.001125 
L 253.952981 581.001125 
L 254.519239 598.210389 
L 255.085497 138.973802 
L 255.651755 264.120376 
L 256.218013 613.163732 
L 256.784271 275.842812 
L 257.350529 581.001125 
L 257.916786 574.755067 
L 258.483044 574.755067 
L 259.049302 544.616513 
L 259.61556 275.842812 
L 261.314334 275.842812 
L 261.880592 385.338019 
L 262.44685 613.208818 
L 263.579366 613.163732 
L 264.145624 615.199054 
L 264.711882 264.120376 
L 265.844397 264.120376 
L 266.410655 385.338019 
L 266.976913 385.338019 
L 267.543171 615.408383 
L 268.109429 615.363297 
L 268.675687 264.120376 
L 269.241945 604.495898 
L 269.808203 604.495898 
L 270.374461 544.117343 
L 270.940719 275.842812 
L 271.506977 615.363297 
L 272.073235 613.163732 
L 272.639493 604.495898 
L 273.205751 581.001125 
L 274.338266 581.001125 
L 274.904524 264.120376 
L 275.470782 597.825546 
L 276.03704 264.120376 
L 276.603298 613.163732 
L 277.169556 613.163732 
L 277.735814 615.199054 
L 278.302072 419.437728 
L 278.86833 371.734853 
L 279.434588 483.716246 
L 280.000846 483.716246 
L 280.567104 574.755067 
L 281.133362 581.001125 
L 281.699619 581.001125 
L 282.265877 138.973802 
L 282.832135 604.495898 
L 283.398393 604.495898 
L 283.964651 138.973802 
L 284.530909 138.973802 
L 285.097167 483.716246 
L 285.663425 275.842812 
L 286.229683 275.842812 
L 286.795941 581.001125 
L 287.362199 264.120376 
L 287.928457 613.163732 
L 290.759746 613.208818 
L 291.326004 604.495898 
L 291.892262 604.495898 
L 292.45852 264.120376 
L 293.024778 264.120376 
L 293.591036 613.208818 
L 294.157294 615.408383 
L 294.723552 615.408383 
L 295.856068 138.973802 
L 296.422326 615.408383 
L 296.988584 615.419655 
L 297.554841 613.163732 
L 298.121099 613.163732 
L 298.687357 506.50896 
L 299.253615 138.973802 
L 299.819873 264.120376 
L 300.386131 604.495898 
L 300.952389 483.716246 
L 301.518647 483.716246 
L 302.084905 604.495898 
L 302.651163 604.495898 
L 303.217421 264.120376 
L 303.783679 264.120376 
L 304.349937 581.001125 
L 304.916195 615.419655 
L 305.482452 613.163732 
L 306.04871 275.842812 
L 306.614968 612.804652 
L 307.181226 483.716246 
L 308.313742 483.716246 
L 308.88 604.495898 
L 312.277548 604.495898 
L 312.843805 574.755067 
L 313.410063 275.842812 
L 313.976321 614.946249 
L 314.542579 615.442198 
L 315.108837 614.946249 
L 315.675095 615.442198 
L 316.241353 574.755067 
L 316.807611 574.755067 
L 317.373869 264.120376 
L 317.940127 264.120376 
L 318.506385 483.716246 
L 319.072643 613.163732 
L 320.205159 613.208818 
L 320.771416 614.946249 
L 321.337674 138.973802 
L 321.903932 581.001125 
L 322.47019 581.001125 
L 323.036448 138.973802 
L 324.168964 138.973802 
L 324.735222 612.804652 
L 325.30148 581.001125 
L 325.867738 483.716246 
L 326.433996 581.001125 
L 327.000254 581.001125 
L 327.566512 275.842812 
L 328.13277 264.120376 
L 328.699027 264.120376 
L 329.265285 604.495898 
L 329.831543 264.120376 
L 330.397801 605.357367 
L 330.964059 615.419655 
L 331.530317 614.946249 
L 332.096575 614.946249 
L 332.662833 309.449783 
L 333.229091 275.842812 
L 333.795349 601.753687 
L 334.361607 613.163732 
L 335.494123 613.163732 
L 336.060381 574.755067 
L 336.626638 581.001125 
L 337.192896 581.001125 
L 337.759154 604.495898 
L 338.89167 604.495898 
L 339.457928 513.244528 
L 340.024186 452.967412 
L 340.590444 604.495898 
L 341.156702 275.842812 
L 341.72296 512.132664 
L 342.289218 512.132664 
L 342.855476 600.099987 
L 343.421734 581.001125 
L 343.987992 138.973802 
L 344.554249 581.001125 
L 345.120507 581.001125 
L 345.686765 264.120376 
L 346.253023 613.163732 
L 347.951797 613.163732 
L 348.518055 615.199054 
L 349.084313 275.842812 
L 349.650571 581.001125 
L 350.216829 275.842812 
L 350.783087 275.842812 
L 351.349345 138.973802 
L 351.915603 275.842812 
L 353.048118 275.842812 
L 353.614376 138.973802 
L 354.180634 138.973802 
L 354.746892 581.001125 
L 355.31315 581.001125 
L 355.879408 604.495898 
L 357.578182 604.495898 
L 358.14444 581.001125 
L 358.710698 581.001125 
L 359.276956 275.842812 
L 360.409471 275.842812 
L 360.975729 604.495898 
L 363.807019 604.495898 
L 364.373277 264.120376 
L 364.939535 605.357367 
L 365.505793 138.973802 
L 366.072051 615.363297 
L 366.638309 598.446288 
L 367.204567 598.210389 
L 367.770825 614.87862 
L 368.337082 385.338019 
L 368.90334 483.716246 
L 369.469598 483.716246 
L 370.035856 611.025355 
L 370.602114 611.025355 
L 371.168372 275.842812 
L 371.73463 613.163732 
L 372.300888 613.208818 
L 372.867146 584.97435 
L 373.433404 275.842812 
L 373.999662 275.842812 
L 374.56592 604.495898 
L 375.698436 604.495898 
L 376.264693 138.973802 
L 376.830951 581.001125 
L 377.397209 581.001125 
L 377.963467 604.495898 
L 380.228499 604.495898 
L 380.794757 574.755067 
L 381.361015 581.001125 
L 381.927273 483.716246 
L 382.493531 574.755067 
L 383.059789 581.001125 
L 383.626047 581.001125 
L 384.192304 613.163732 
L 384.758562 275.842812 
L 385.32482 581.001125 
L 387.023594 581.001125 
L 387.589852 605.357367 
L 388.15611 434.738882 
L 388.722368 439.741839 
L 389.288626 613.163732 
L 389.854884 613.794939 
L 390.421142 613.163732 
L 392.119915 613.163732 
L 392.686173 604.495898 
L 393.252431 483.716246 
L 393.818689 581.001125 
L 394.384947 581.001125 
L 394.951205 483.716246 
L 395.517463 483.716246 
L 396.083721 385.338019 
L 396.649979 385.338019 
L 397.216237 581.001125 
L 397.782495 138.973802 
L 398.348753 275.842812 
L 398.915011 604.495898 
L 399.481268 604.495898 
L 400.047526 581.001125 
L 401.180042 581.001125 
L 401.7463 138.973802 
L 402.312558 604.495898 
L 402.878816 138.973802 
L 403.445074 604.495898 
L 404.011332 581.001125 
L 404.57759 581.001125 
L 405.143848 604.495898 
L 405.710106 604.495898 
L 406.276364 264.120376 
L 406.842622 138.973802 
L 407.975137 138.973802 
L 408.541395 581.001125 
L 409.107653 549.539769 
L 409.673911 549.539769 
L 410.240169 592.748512 
L 410.806427 581.001125 
L 411.372685 264.120376 
L 411.938943 615.199054 
L 412.505201 604.495898 
L 413.071459 604.495898 
L 413.637717 615.419655 
L 414.203975 613.163732 
L 414.770233 264.120376 
L 415.33649 613.163732 
L 416.469006 613.163732 
L 417.035264 264.120376 
L 417.601522 581.001125 
L 418.16778 138.973802 
L 418.734038 574.755067 
L 419.300296 574.755067 
L 419.866554 483.716246 
L 420.432812 604.495898 
L 420.99907 385.338019 
L 421.565328 615.419655 
L 422.131586 613.208818 
L 423.264101 613.163732 
L 423.830359 581.001125 
L 427.227907 581.001125 
L 427.794165 612.804652 
L 428.360423 581.001125 
L 430.059197 581.001125 
L 430.625455 612.804652 
L 431.191712 581.001125 
L 432.324228 581.001125 
L 432.890486 138.973802 
L 435.721776 138.973802 
L 436.288034 581.001125 
L 436.854292 275.842812 
L 437.42055 613.208818 
L 437.986808 411.101597 
L 438.553066 581.001125 
L 440.251839 581.001125 
L 440.818097 604.495898 
L 441.384355 604.495898 
L 441.950613 581.001125 
L 442.516871 264.120376 
L 443.083129 275.842812 
L 443.649387 604.495898 
L 444.215645 615.363297 
L 444.781903 613.163732 
L 447.613192 613.208818 
L 448.17945 581.001125 
L 448.745708 581.001125 
L 449.311966 604.495898 
L 449.878224 604.495898 
L 450.444482 581.001125 
L 451.01074 581.001125 
L 451.576998 138.973802 
L 452.143256 138.973802 
L 452.709514 581.001125 
L 454.408288 581.001125 
L 454.974545 604.495898 
L 456.673319 604.495898 
L 457.239577 483.716246 
L 457.805835 275.842812 
L 458.372093 264.120376 
L 458.938351 613.163732 
L 459.504609 613.163732 
L 460.070867 264.120376 
L 460.637125 275.0377 
L 461.203383 549.539769 
L 461.769641 388.225965 
L 462.902156 604.495898 
L 463.468414 604.495898 
L 464.034672 613.163732 
L 464.60093 613.208818 
L 465.167188 604.495898 
L 465.733446 604.495898 
L 466.299704 613.163732 
L 466.865962 275.842812 
L 467.43222 604.495898 
L 467.998478 613.163732 
L 469.697252 613.208818 
L 470.26351 483.716246 
L 470.829767 385.338019 
L 471.396025 138.973802 
L 471.962283 138.973802 
L 472.528541 581.001125 
L 473.094799 138.973802 
L 473.661057 483.716246 
L 474.227315 138.973802 
L 474.793573 138.973802 
L 475.359831 613.163732 
L 475.926089 604.495898 
L 476.492347 604.495898 
L 477.058605 581.001125 
L 477.624863 275.842812 
L 479.323636 275.842812 
L 479.889894 581.001125 
L 480.456152 138.973802 
L 481.02241 385.338019 
L 482.154926 385.338019 
L 482.721184 138.973802 
L 483.287442 138.973802 
L 483.8537 604.495898 
L 484.419958 138.973802 
L 484.986216 138.973802 
L 485.552474 411.101597 
L 486.118732 613.163732 
L 486.684989 613.163732 
L 487.251247 615.199054 
L 487.817505 615.199054 
L 488.383763 385.338019 
L 488.950021 615.199054 
L 489.516279 422.56076 
L 490.082537 613.794939 
L 490.648795 614.946249 
L 491.215053 614.946249 
L 491.781311 615.199054 
L 492.347569 615.199054 
L 492.913827 581.001125 
L 493.480085 264.120376 
L 495.178858 264.120376 
L 495.745116 483.716246 
L 496.311374 385.338019 
L 496.877632 264.120376 
L 497.44389 615.419655 
L 498.010148 613.163732 
L 499.142664 613.163732 
L 500.841438 138.973802 
L 501.407696 275.842812 
L 501.973953 602.06446 
L 502.540211 385.338019 
L 503.106469 385.338019 
L 503.672727 138.973802 
L 504.238985 581.001125 
L 505.371501 581.001125 
L 505.937759 615.419655 
L 506.504017 431.283329 
L 507.070275 483.716246 
L 507.636533 613.208818 
L 508.769049 613.163732 
L 509.335307 604.495898 
L 509.901564 604.495898 
L 510.467822 581.001125 
L 511.600338 581.001125 
L 512.166596 604.495898 
L 512.732854 138.973802 
L 513.86537 138.973802 
L 514.431628 581.001125 
L 515.564144 581.001125 
L 516.130402 138.973802 
L 516.69666 138.973802 
L 517.262918 275.842812 
L 517.829175 275.842812 
L 518.395433 581.001125 
L 521.792981 581.001125 
L 522.359239 604.495898 
L 522.925497 604.495898 
L 523.491755 581.001125 
L 526.889302 581.001125 
L 527.45556 615.316601 
L 528.021818 615.316601 
L 528.588076 604.495898 
L 529.154334 604.495898 
L 529.720592 581.001125 
L 530.28685 613.163732 
L 531.419366 613.163732 
L 531.985624 264.120376 
L 532.551882 604.495898 
L 533.11814 613.208818 
L 533.684397 613.163732 
L 534.250655 604.495898 
L 534.816913 264.120376 
L 535.383171 411.101597 
L 535.949429 613.163732 
L 536.515687 613.163732 
L 537.081945 581.001125 
L 537.648203 615.419655 
L 538.214461 613.794939 
L 538.780719 613.794939 
L 539.346977 615.199054 
L 539.913235 615.199054 
L 540.479493 615.316601 
L 541.045751 275.842812 
L 541.612008 138.973802 
L 542.178266 138.973802 
L 542.744524 483.716246 
L 543.310782 483.716246 
L 543.87704 581.001125 
L 544.443298 604.495898 
L 545.009556 581.001125 
L 546.142072 581.001125 
L 546.70833 604.495898 
L 547.274588 604.495898 
L 547.840846 275.842812 
L 548.407104 275.842812 
L 548.973362 604.495898 
L 549.539619 264.120376 
L 550.105877 512.331524 
L 550.672135 607.481253 
L 551.238393 604.495898 
L 551.804651 581.001125 
L 552.370909 604.495898 
L 553.503425 604.495898 
L 554.069683 615.419655 
L 554.635941 581.001125 
L 555.768457 581.001125 
L 556.334715 264.120376 
L 556.900973 581.001125 
L 557.46723 581.001125 
L 558.033488 264.120376 
L 558.599746 581.001125 
L 559.166004 604.495898 
L 559.732262 604.495898 
L 560.29852 600.425253 
L 560.864778 615.419655 
L 561.431036 428.421959 
L 561.997294 613.794939 
L 562.563552 275.842812 
L 563.696068 275.842812 
L 564.262326 385.338019 
L 564.828584 385.338019 
L 565.394841 615.408383 
L 565.961099 385.338019 
L 566.527357 581.001125 
L 567.093615 614.946249 
L 567.659873 614.946249 
L 568.226131 138.973802 
L 568.792389 519.936617 
L 569.358647 544.117343 
L 569.924905 264.120376 
L 570.491163 264.120376 
L 571.057421 385.338019 
L 571.623679 311.345019 
L 572.189937 411.101597 
L 572.756195 598.446288 
L 573.322452 275.842812 
L 573.88871 275.842812 
L 574.454968 581.001125 
L 575.021226 275.842812 
L 575.587484 581.001125 
L 577.286258 581.001125 
L 577.852516 275.842812 
L 578.418774 581.001125 
L 578.985032 581.001125 
L 579.55129 598.210389 
L 580.117548 598.210389 
L 580.683805 264.120376 
L 581.250063 613.794939 
L 581.816321 615.408383 
L 582.382579 613.208818 
L 583.515095 613.163732 
L 584.081353 264.120376 
L 584.647611 605.357367 
L 585.213869 615.419655 
L 585.780127 581.001125 
L 586.346385 581.001125 
L 586.912643 604.495898 
L 587.478901 275.842812 
L 588.045159 385.338019 
L 588.611416 613.794939 
L 589.177674 513.244528 
L 589.743932 138.973802 
L 590.31019 581.001125 
L 592.575222 581.001125 
L 593.14148 604.495898 
L 594.273996 604.495898 
L 594.840254 264.120376 
L 595.406512 506.50896 
L 595.97277 506.50896 
L 596.539027 138.973802 
L 597.105285 604.880741 
L 597.671543 581.001125 
L 598.237801 613.163732 
L 599.936575 613.163732 
L 600.502833 385.338019 
L 602.201607 385.338019 
L 602.767865 483.716246 
L 603.900381 483.716246 
L 604.466638 581.001125 
L 605.032896 138.973802 
L 605.599154 604.495898 
L 606.165412 604.495898 
L 606.73167 581.001125 
L 610.129218 581.001125 
L 610.695476 604.495898 
L 611.261734 604.495898 
L 611.827992 581.001125 
L 612.394249 604.495898 
L 614.093023 604.495898 
L 614.659281 581.001125 
L 615.225539 612.804652 
L 615.791797 581.001125 
L 620.32186 581.001125 
L 620.888118 508.983873 
L 621.454376 508.983873 
L 622.020634 581.001125 
L 622.586892 593.179245 
L 623.15315 581.001125 
L 623.719408 264.120376 
L 624.285666 275.842812 
L 624.851924 275.842812 
L 625.418182 581.001125 
L 625.98444 581.001125 
L 626.550698 601.753687 
L 628.249471 601.753687 
L 628.815729 311.345019 
L 629.381987 581.001125 
L 631.647019 581.001125 
L 632.213277 604.495898 
L 632.779535 604.495898 
L 633.345793 483.716246 
L 633.912051 483.716246 
L 634.478309 615.096 
L 635.044567 614.946249 
L 635.610825 581.001125 
L 636.177082 604.495898 
L 636.74334 604.495898 
L 637.309598 574.755067 
L 638.442114 574.755067 
L 639.008372 138.973802 
L 640.140888 604.495898 
L 642.972178 604.495898 
L 643.538436 275.842812 
L 644.104693 604.495898 
L 644.670951 604.495898 
L 645.237209 385.338019 
L 645.803467 613.794939 
L 646.369725 371.734853 
L 646.935983 483.716246 
L 647.502241 483.716246 
L 648.068499 513.244528 
L 648.634757 604.495898 
L 649.201015 604.495898 
L 649.767273 615.419655 
L 650.333531 385.338019 
L 650.899789 385.338019 
L 651.466047 138.973802 
L 652.032304 604.495898 
L 652.598562 604.495898 
L 653.16482 385.338019 
L 654.297336 385.338019 
L 654.863594 614.946249 
L 655.429852 385.338019 
L 655.99611 385.338019 
L 656.562368 581.001125 
L 657.128626 275.842812 
L 657.694884 275.842812 
L 658.261142 613.163732 
L 658.8274 613.163732 
L 659.393658 138.973802 
L 659.959915 483.716246 
L 660.526173 138.973802 
L 661.092431 138.973802 
L 661.658689 275.842812 
L 662.224947 264.120376 
L 662.791205 275.842812 
L 663.357463 275.842812 
L 663.923721 385.338019 
L 664.489979 581.001125 
L 665.056237 604.495898 
L 665.622495 264.120376 
L 666.188753 264.120376 
L 666.755011 613.163732 
L 668.453784 613.163732 
L 669.020042 385.338019 
L 669.5863 385.338019 
L 670.152558 581.001125 
L 670.718816 604.495898 
L 671.851332 604.495898 
L 672.41759 581.001125 
L 673.550106 581.001125 
L 674.116364 138.973802 
L 674.682622 138.973802 
L 675.248879 581.001125 
L 675.815137 275.842812 
L 676.381395 275.842812 
L 676.947653 544.117343 
L 677.513911 604.495898 
L 678.080169 581.001125 
L 678.646427 385.338019 
L 679.212685 138.973802 
L 679.778943 581.001125 
L 680.345201 483.716246 
L 680.911459 483.716246 
L 681.477717 581.001125 
L 683.17649 581.001125 
L 683.742748 600.425253 
L 684.309006 615.363297 
L 684.875264 341.545577 
L 685.441522 598.446288 
L 686.00778 581.001125 
L 687.706554 581.001125 
L 688.272812 604.495898 
L 689.971586 604.495898 
L 690.537844 275.842812 
L 691.670359 275.842812 
L 692.236617 581.001125 
L 692.802875 581.001125 
L 693.369133 264.120376 
L 693.935391 264.120376 
L 694.501649 581.001125 
L 695.067907 613.163732 
L 696.200423 613.163732 
L 696.766681 513.244528 
L 697.332939 513.244528 
L 697.899197 604.495898 
L 698.465455 604.495898 
L 699.031712 138.973802 
L 699.59797 138.973802 
L 700.164228 604.495898 
L 700.730486 604.495898 
L 701.296744 581.001125 
L 701.863002 428.421959 
L 702.42926 138.973802 
L 702.995518 385.338019 
L 703.561776 275.842812 
L 704.128034 275.842812 
L 704.694292 138.973802 
L 705.26055 138.973802 
L 705.826808 604.495898 
L 707.525581 604.495898 
L 708.091839 581.001125 
L 708.658097 285.220752 
L 709.224355 264.120376 
L 709.790613 600.425253 
L 710.356871 614.946249 
L 710.923129 613.163732 
L 712.055645 613.163732 
L 712.621903 138.973802 
L 713.188161 385.338019 
L 713.754419 275.842812 
L 714.320677 385.338019 
L 714.886934 275.842812 
L 715.453192 581.001125 
L 716.01945 581.001125 
L 716.585708 275.842812 
L 717.151966 581.001125 
L 717.718224 604.495898 
L 718.284482 581.001125 
L 720.549514 581.001125 
L 721.115772 604.495898 
L 721.68203 285.220752 
L 722.248288 285.220752 
L 722.814545 581.001125 
L 723.380803 581.001125 
L 723.947061 604.495898 
L 725.079577 604.495898 
L 725.645835 581.001125 
L 726.212093 581.001125 
L 726.778351 264.120376 
L 727.344609 264.120376 
L 727.910867 275.842812 
L 728.477125 369.699528 
L 729.043383 262.155911 
L 729.609641 444.525807 
L 730.175899 548.462529 
L 730.742156 548.462529 
L 731.308414 411.101597 
L 731.874672 613.163732 
L 733.573446 613.163732 
L 734.139704 483.716246 
L 734.705962 483.716246 
L 735.27222 604.495898 
L 735.838478 604.495898 
L 736.404736 138.973802 
L 736.970994 138.973802 
L 738.10351 613.163732 
L 738.669767 613.163732 
L 739.236025 581.001125 
L 740.368541 581.001125 
L 740.934799 556.153765 
L 747.163636 556.153765 
L 747.163636 556.153765 
" style="fill:none;stroke:#b8860b;stroke-dasharray:192,2;stroke-dashoffset:0;stroke-width:2;"/>
   </g>
   <g id="patch_3">
    <path d="M 108 640.8 
L 108 86.4 
" style="fill:none;stroke:#000000;stroke-linecap:square;stroke-linejoin:miter;stroke-width:0.8;"/>
   </g>
   <g id="patch_4">
    <path d="M 777.6 640.8 
L 777.6 86.4 
" style="fill:none;stroke:#000000;stroke-linecap:square;stroke-linejoin:miter;stroke-width:0.8;"/>
   </g>
   <g id="patch_5">
    <path d="M 108 640.8 
L 777.6 640.8 
" style="fill:none;stroke:#000000;stroke-linecap:square;stroke-linejoin:miter;stroke-width:0.8;"/>
   </g>
   <g id="patch_6">
    <path d="M 108 86.4 
L 777.6 86.4 
" style="fill:none;stroke:#000000;stroke-linecap:square;stroke-linejoin:miter;stroke-width:0.8;"/>
   </g>
   <g id="text_16">
    <!-- 123 -->
    <g transform="translate(431.3475 80.4)scale(0.12 -0.12)">
     <use xlink:href="#DejaVuSans-31"/>
     <use x="63.623047" xlink:href="#DejaVuSans-32"/>
     <use x="127.246094" xlink:href="#DejaVuSans-33"/>
    </g>
   </g>
   <g id="legend_1">
    <g id="patch_7">
     <path d="M 726.31875 138.434375 
L 770.6 138.434375 
Q 772.6 138.434375 772.6 136.434375 
L 772.6 93.4 
Q 772.6 91.4 770.6 91.4 
L 726.31875 91.4 
Q 724.31875 91.4 724.31875 93.4 
L 724.31875 136.434375 
Q 724.31875 138.434375 726.31875 138.434375 
z
" style="fill:#ffffff;opacity:0.8;stroke:#cccccc;stroke-linejoin:miter;"/>
    </g>
    <g id="line2d_17">
     <path d="M 728.31875 99.498437 
L 748.31875 99.498437 
" style="fill:none;stroke:#ffe4e1;stroke-dasharray:200,2;stroke-dashoffset:0;stroke-width:2;"/>
    </g>
    <g id="line2d_18"/>
    <g id="text_17">
     <!-- x0 -->
     <g transform="translate(756.31875 102.998437)scale(0.1 -0.1)">
      <use xlink:href="#DejaVuSans-78"/>
      <use x="59.179688" xlink:href="#DejaVuSans-30"/>
     </g>
    </g>
    <g id="line2d_19">
     <path d="M 728.31875 114.176562 
L 748.31875 114.176562 
" style="fill:none;stroke:#a52a2a;stroke-dasharray:196,2;stroke-dashoffset:0;stroke-width:2;"/>
    </g>
    <g id="line2d_20"/>
    <g id="text_18">
     <!-- x1 -->
     <g transform="translate(756.31875 117.676562)scale(0.1 -0.1)">
      <use xlink:href="#DejaVuSans-78"/>
      <use x="59.179688" xlink:href="#DejaVuSans-31"/>
     </g>
    </g>
    <g id="line2d_21">
     <path d="M 728.31875 128.854687 
L 748.31875 128.854687 
" style="fill:none;stroke:#b8860b;stroke-dasharray:192,2;stroke-dashoffset:0;stroke-width:2;"/>
    </g>
    <g id="line2d_22"/>
    <g id="text_19">
     <!-- x2 -->
     <g transform="translate(756.31875 132.354687)scale(0.1 -0.1)">
      <use xlink:href="#DejaVuSans-78"/>
      <use x="59.179688" xlink:href="#DejaVuSans-32"/>
     </g>
    </g>
   </g>
  </g>
 </g>
 <defs>
  <clipPath id="p1d1660d51a">
   <rect height="554.4" width="669.6" x="108" y="86.4"/>
  </clipPath>
 </defs>
</svg>
